<?xml version="1.0" encoding="utf-8"?>
<!-- Generator: Adobe Illustrator 18.1.1, SVG Export Plug-In . SVG Version: 6.00 Build 0)  -->
<svg version="1.1" id="Layer_1" xmlns="http://www.w3.org/2000/svg" xmlns:xlink="http://www.w3.org/1999/xlink" x="0px" y="0px"
	 viewBox="0 128.3 107 121.7" enable-background="new 0 128.3 107 121.7" xml:space="preserve">
<g>
	<g>
		<path fill="#AF2024" d="M48.7,172.7c0,0-6.5-27.1-23.4-15.8c-16.9,11.4,7.7,54.7,7.7,54.7s10.9,17.4,11.8,18.6
			c11.9,15.1,32-15.1,32-15.1s27.1-38.9,11.6-56.7C64.1,130.6,48.7,172.7,48.7,172.7z"/>
		<g>
			<g>
				<g>
					<g>
						<path fill="#CC2829" d="M50,172.9c-0.2,0.4,0.1,0.3,0.1,0.4C50.3,172.6,49.9,172.9,50,172.9z"/>
						<polygon fill="#CC2829" points="52.3,166.7 52.3,166.8 52.6,165.9 						"/>
						<path fill="#CC2829" d="M55.4,161.5c-0.6,0.3-1.2,1.9-1.8,2.8l-0.2,0.1v0.6C54.1,163.8,54.8,162.2,55.4,161.5z"/>
						<path fill="#CC2829" d="M57.9,159.3c-0.2,0.1,0.3-0.6-0.5,0.6c0.1-0.1,0.1-0.1,0.1-0.1C57.6,159.7,57.8,159.5,57.9,159.3z"/>
						<path fill="#CC2829" d="M57.6,159.8C57.2,160.3,57.9,159.5,57.6,159.8L57.6,159.8z"/>
						<path fill="#CC2829" d="M59.3,157.5l-0.4,0.7c0.2-0.1,0.7-0.6,0.5-0.4C60,157.1,59.8,157.2,59.3,157.5z"/>
						<path fill="#CC2829" d="M59.7,156.7l-0.3,0.4C59.5,157,59.6,156.9,59.7,156.7z"/>
						<path fill="#CC2829" d="M58.9,157.8c0,0,0.1-0.2,0.3-0.4c0.1-0.2,0.3-0.4,0.3-0.4c-0.1,0.1-0.2,0-0.3,0.3
							C59.1,157.3,59.1,157.5,58.9,157.8z"/>
						<path fill="#CC2829" d="M58.5,158.2c-0.4,0.3-0.8,0.7-0.4,0C57.2,159.5,57.6,159.4,58.5,158.2z"/>
						<path fill="#CC2829" d="M55.2,161l-0.4,0.5l-0.2,0.5C54.7,161.7,55.4,161,55.2,161z"/>
						<path fill="#CC2829" d="M63.1,154.1c0-0.1-0.3,0-0.5-0.1c0,0-0.1,0.1-0.2,0.2c-0.1,0.1-0.2,0.2-0.2,0.2
							C62.5,154.4,63,154.1,63.1,154.1z"/>
						<path fill="#CC2829" d="M62.7,154.1c0,0,0.2-0.2,0.3-0.3c0.2-0.2,0.3-0.3,0.3-0.3C62.6,153.8,62.6,154.1,62.7,154.1z"/>
						<path fill="#CC2829" d="M59.4,156.3c0,0-0.2,0.3-0.4,0.6c-0.2,0.3-0.4,0.7-0.4,0.7s0.2-0.4,0.5-0.8c0.3-0.4,0.5-0.7,0.5-0.7
							L59.4,156.3z"/>
						<path fill="#CC2829" d="M65.9,152.3l-0.3,0.4c0,0,0.2-0.2,0.3-0.3s0.3-0.3,0.3-0.3L65.9,152.3z"/>
						<path fill="#CC2829" d="M67.9,151.4c-0.3,0.3,0.5,0.1,0.2,0.3c0.5-0.2,1-0.5,1.4-0.7C69,151.2,68.6,151.3,67.9,151.4z"/>
						<path fill="#CC2829" d="M70.2,150.7c-0.2,0.1-0.5,0.2-0.7,0.3C69.7,150.9,69.9,150.8,70.2,150.7z"/>
						<path fill="#CC2829" d="M64.6,152.6c0.1,0,0.3,0.1,0.7-0.2c0,0-0.1,0-0.2,0s-0.2,0-0.2,0C64.8,152.5,64.7,152.5,64.6,152.6z"
							/>
						<path fill="#CC2829" d="M64.9,152.4L64.9,152.4c0.3-0.2,0.6-0.3,0.7-0.4C65.5,152.1,65.2,152.2,64.9,152.4z"/>
						<path fill="#CC2829" d="M64.5,152.6C64.6,152.6,64.6,152.6,64.5,152.6C64.6,152.6,64.5,152.6,64.5,152.6z"/>
						<path fill="#CC2829" d="M61.3,154.7c0.3-0.5,1.1-1.3,0.1-0.7C61.3,154.4,61.8,154.1,61.3,154.7z"/>
						<path fill="#CC2829" d="M64,152.6c0,0-0.2,0.1-0.4,0.3c-0.2,0.1-0.4,0.3-0.4,0.3c0.1,0.1,0.3,0,0.1,0.2c0,0,0.2-0.2,0.4-0.4
							C63.8,152.8,64,152.6,64,152.6z"/>
						<path fill="#CC2829" d="M64.3,152.3c0,0-0.1,0.1-0.2,0.2c-0.1,0.1-0.2,0.2-0.2,0.2s0.1-0.1,0.2-0.1c0.1-0.1,0.2-0.1,0.2-0.1
							V152.3z"/>
						<path fill="#CC2829" d="M68.6,150.8c0.2-0.1,0.4-0.2,0.6-0.3c0.2-0.1,0.4-0.1,0.7-0.2c-0.3,0-0.5,0.1-0.8,0.1
							c-0.3,0.1-0.5,0.1-0.8,0.2C68.2,150.8,68.1,151,68.6,150.8z"/>
						<path fill="#CC2829" d="M66.7,151.4L66.7,151.4C66.7,151.4,66.7,151.4,66.7,151.4z"/>
						<path fill="#CC2829" d="M74.7,150.5L74.7,150.5C74.6,150.4,74.6,150.4,74.7,150.5L74.7,150.5z"/>
						<path fill="#CC2829" d="M68.2,150.7c-0.4,0.1-0.6,0.2-0.8,0.4c0.3-0.1,0.6-0.3,0.9-0.4C68.3,150.6,68.3,150.6,68.2,150.7z"/>
						<path fill="#CC2829" d="M71.5,150.4c-0.2-0.1-0.4-0.1-0.7-0.1C71,150.4,71.4,150.5,71.5,150.4z"/>
						<path fill="#CC2829" d="M67,151.4L67,151.4C67.1,151.4,67.1,151.4,67,151.4z"/>
						<path fill="#CC2829" d="M67,151.4c0.2-0.1,0.3-0.2,0.4-0.3c-0.2,0.1-0.4,0.2-0.6,0.3C66.9,151.4,67,151.4,67,151.4z"/>
						<path fill="#CC2829" d="M76.5,149.5c-0.1,0.1-0.4,0.1-0.8,0c-0.4-0.1-0.9-0.2-1.4-0.4c-1,0-0.4,0.8,0.3,1.3
							c0.1-0.1,0.1-0.2,1-0.1c-0.2-0.1-0.6-0.3-1-0.4c-0.4-0.2-0.6-0.3-0.2-0.3c1.3,0.2,1,0.3,1.6,0.6c-0.2-0.2,0.2-0.2,0.6-0.2
							c0.4,0.1,1,0.1,0.9-0.1c0,0-0.3-0.1-0.6-0.2c-0.3-0.1-0.6-0.1-0.6-0.1C76.4,149.6,76.9,149.6,76.5,149.5z"/>
						<path fill="#CC2829" d="M72.9,150.2h-0.4c0.4,0.1,0.7,0.2,1.2,0.4c0.6,0,0.7-0.1,0.8-0.1c0,0-0.1-0.1-0.3-0.1
							c-0.2-0.1-0.4-0.1-0.6-0.1c-0.5-0.1-0.9-0.1-0.9-0.1C72.8,150.2,72.9,150.2,72.9,150.2z"/>
						<path fill="#CC2829" d="M70.8,150.2c0.3-0.3,1.2-0.4,0.6-0.6c-0.6,0-0.7,0.1-0.9,0.2c-0.2,0.1-0.2,0.2-0.5,0.3
							C71.8,149.8,69.5,150.2,70.8,150.2c-0.2,0-0.4,0.1-0.5,0.1c-0.2,0.1-0.3,0.1-0.4,0.1c0.3-0.1,0.6-0.1,0.9,0h-0.1l0,0l0,0
							c-0.1,0-0.1-0.1,0-0.1h0.1C70.7,150.3,70.8,150.3,70.8,150.2c0.5,0,0.1,0.1-0.1,0.1c0,0,0,0,0,0.1l0,0c0,0,0.4-0.1,0.9-0.1
							c0.2-0.1,0.4-0.1,0.6-0.1s0.3,0,0.3,0C72.1,150.2,71.6,150.1,70.8,150.2z"/>
						<path fill="#CC2829" d="M61.9,153c0.1,0,0.1,0,0.1,0C62.1,152.9,62.1,152.8,61.9,153z"/>
						<path fill="#CC2829" d="M62.6,152.6c-0.1,0.1-0.2,0.3-0.5,0.5c-0.4,0.2-0.1-0.1-0.1-0.1c-0.2,0.2-0.6,0.7,0.1,0.3l0.1-0.1
							c0.3-0.2,0.7-0.4,1.1-0.5c0.3-0.1,0.5-0.2,0.5-0.1C63.4,152.5,63.2,152.5,62.6,152.6z"/>
						<path fill="#CC2829" d="M66.7,150.8c0,0,0.3-0.2,0.7-0.3c0.4-0.2,0.7-0.3,0.7-0.3s-0.2,0-0.4,0c-0.2,0-0.4,0.1-0.4,0.1
							l0.1,0.1C66.5,150.5,66.7,150.6,66.7,150.8z"/>
						<path fill="#CC2829" d="M74.8,150.6l-0.3,0.2c0,0,0.2-0.1,0.4-0.1c0.2-0.1,0.5-0.1,0.5-0.1C75.5,150.7,74.8,150.6,74.8,150.6z
							"/>
						<polygon fill="#CC2829" points="76.7,151.2 76.5,151.3 77,151.4 						"/>
						<path fill="#CC2829" d="M42.4,228.9l-0.3-0.4C42.2,228.8,42.3,228.9,42.4,228.9z"/>
						<path fill="#CC2829" d="M44.5,231.9h0.2C44.5,231.8,44.4,231.8,44.5,231.9z"/>
						<path fill="#CC2829" d="M86.9,193.8c-0.4,0.6-1,1.1-0.8,1.2l0.3-0.1C86.6,194.4,86.7,194,86.9,193.8z"/>
						<path fill="#CC2829" d="M69.5,224.4c0.1-0.1,0.1-0.1,0.2-0.1c0.1-0.2,0.1-0.3,0.2-0.5C69.7,223.9,69.6,224.2,69.5,224.4z"/>
						<path fill="#CC2829" d="M69.8,225.4c0,0-0.2,0.2-0.4,0.3c-0.2,0.2-0.4,0.3-0.4,0.3C69.3,225.8,69.5,225.6,69.8,225.4z"/>
						<path fill="#CC2829" d="M32,213.1l-0.5-0.4C32,213.5,31.9,213.1,32,213.1z"/>
						<path fill="#CC2829" d="M90.8,165.2c0.1,0.6,0.2,1,0.3,1.4C91,165.9,91,165.4,90.8,165.2z"/>
						<path fill="#CC2829" d="M45.2,228.8c-0.2-0.2-0.3-0.3-0.3-0.3C45,228.7,45.2,228.8,45.2,228.8z"/>
						<path fill="#CC2829" d="M91.4,168.2c0-0.1,0-0.2,0-0.3c-0.1-0.4-0.2-0.8-0.3-1.3c0,0.3,0.1,0.5,0.1,0.8
							C91.2,167.7,91.3,168,91.4,168.2z"/>
						<path fill="#CC2829" d="M33.3,152.8c0.1,0,0.1,0,0.2,0.1C33.4,152.8,33.4,152.8,33.3,152.8z"/>
						<path fill="#CC2829" d="M45.9,167.6c-0.1-0.2-0.2-0.5-0.3-0.7C45.6,167,45.7,167.2,45.9,167.6z"/>
						<path fill="#CC2829" d="M83.4,155.5C83.1,155.2,83.3,155.4,83.4,155.5L83.4,155.5z"/>
						<path fill="#CC2829" d="M82.3,153.4c0.1,0.1,0.2,0.1,0.2,0C82.5,153.5,82.4,153.5,82.3,153.4z"/>
						<path fill="#CC2829" d="M93.2,172.4L93.2,172.4C93.3,172.3,93.3,172.3,93.2,172.4z"/>
						<path fill="#CC2829" d="M82.9,155c0.1,0.1,0.2,0.3,0.4,0.4C83.3,155.3,83.2,155.2,82.9,155z"/>
						<path fill="#CC2829" d="M82.9,155.1c-0.1-0.1-0.2-0.2-0.3-0.3C82.6,154.9,82.6,154.9,82.9,155.1z"/>
						<path fill="#CC2829" d="M83.8,155.9c-0.2-0.2-0.4-0.3-0.5-0.5c0.1,0.1,0.1,0.1,0.1,0.1C83.5,155.5,83.6,155.7,83.8,155.9z"/>
						<path fill="#CC2829" d="M20.4,183.2c0-0.1,0-0.1,0-0.1C20.2,182.7,20.3,182.8,20.4,183.2z"/>
						<path fill="#CC2829" d="M84,205.3L84,205.3L84,205.3L84,205.3z"/>
						<path fill="#CC2829" d="M83.4,206.8c0.1-0.7,0.3-1.1,0.6-1.5l-0.9,0.2L83.4,206.8z"/>
						<path fill="#CC2829" d="M37.8,222l0.4,1.1c-1-1-1.4-1.9-1.1-0.8c0.7-0.3,2.4,3.7,3.1,3.4l0.3,0.7c-0.1-0.2-0.2-0.2-0.3-0.4
							c0.5,1.4,1,0.6,2,2.2c0.3,0.6,0.5,1,0.2,0.7l1,1.1c0.2,0.4,0.1,0.4-0.2,0c0,0,0.1,0.1,0.2,0.3c0.1,0.2,0.3,0.4,0.5,0.7
							c0.4,0.4,0.8,0.9,0.8,0.9h-0.1c0.2,0.1,0.4,0.3,0.6,0.4c0.3,0.2,0.5,0.3,0.7,0.4c0.4,0.5-0.3-0.2-0.2,0.1c0,0,0.3,0.2,0.5,0.4
							s0.6,0.3,0.6,0.3c0.2,0.2,0,0.2-0.3,0.1c-0.3-0.1-0.7-0.5-1.1-0.7c0.3,0.7,0.5,0.9,0.9,1.1c0.2,0.1,0.5,0.2,0.9,0.4
							c0.3,0.2,0.8,0.5,1.4,0.9c0,0-0.3-0.1-0.6-0.2c-0.2-0.1-0.3-0.1-0.4-0.2c-0.1-0.1-0.2-0.1-0.2-0.1c0.3,0.4,0.7,0.6,1.2,0.9
							c0.3,0.2,0.5,0.3,0.9,0.4c0.3,0.1,0.6,0.3,1,0.4c-0.2-0.1-0.9-0.5-1.4-0.8c-0.2-0.2-0.4-0.3-0.4-0.4c0-0.1,0.1-0.1,0.5,0
							c0.2,0.1,0.4,0.2,0.7,0.3c0.3,0.1,0.6,0.2,1,0.1c0,0.1,0.2,0.2,0.5,0.3c0.2,0,0.4,0.1,0.6,0.1s0.4,0,0.7,0l-0.1,0.3
							c1.1-0.1,1-0.3,1.6-0.5c0.3-0.1,0.5-0.1,0.7-0.1c0.2,0,0.3,0,0.5,0c0.3,0.1,0.4,0.1,0.6,0.2c0.5-0.1,0.6-0.2,0.6-0.2
							c0-0.1-0.2-0.1-0.3-0.1c-0.2,0-0.3-0.1-0.3-0.1c0-0.1,0.2-0.1,0.7-0.3c0.4-0.1,0.7-0.2,1-0.3s0.6-0.3,0.9-0.4
							c0.6-0.3,1.2-0.7,1.9-1.2c0.9-0.4-0.1,0.3,0.3,0.2l0.6-0.7c0.2-0.1,0.2,0,0.2,0.1c0.6-0.5-0.1-0.3,0.8-1.1
							c0.1-0.5,2.3-1,3.1-2.3c0.3-0.2,0,0.3,0.2,0.3c1.3-1.5,1.2-1.3,2.1-2.7c0,0,0.3-0.2,0.6-0.4c0.3-0.2,0.6-0.4,0.6-0.4
							c-0.9,0.5-0.2-0.6,0.4-1.6c-0.3,0.2-0.6,0.3-0.8,0.4c0,0,0.3-0.4,0.5-0.7c0.3-0.4,0.5-0.7,0.5-0.7c0.2-0.1,0.2,0.1,0.1,0.4
							c0.1-0.1,0.1-0.2,0.2-0.3c0.5-0.4,0.4,0,0.3,0.5c-0.2,0.1-0.4,0.2-0.6,0.3c-0.2,0.5-0.3,0.9-0.1,1c0.1-0.1,0.2-0.3,0.3-0.5
							c-0.1,0.1-0.1,0.2,0,0.2s0.2-0.2,0.3-0.5l0.5-0.1l-0.1-0.2c0,0,0.4-0.4,0.9-0.8c0.4-0.4,0.9-0.8,0.9-0.8
							c0.8-1.5,1.3-3,2.8-5.3c-0.2,0.7,0.3,0.4,0.5,0.6c-0.7,0.4-1.1,1.8-2.1,2.8c0.5-0.5,0.5-0.3,0.4-0.2c0,0,0.3-0.5,0.6-1.1
							c0.3-0.5,0.6-1.1,0.6-1.1c0.2,0.2,0.5-0.3,1-0.7c-0.7,0.1,0.8-1.7,1.2-2.7c0.2,0.1,0.2,0.3-0.5,1.3c1.1-0.9,0.5-1.8,1.5-2.7
							c-0.2,0.3-0.3,0.4-0.3,0.5c0.3-0.7,1.3-2.1,1.2-1.7l-0.2,0.3c1.1-1.7,3.1-5.2,2.9-5.7c0.1,0,0.4,0.5,0.4,0.6
							c0,0,0.1-1,0.2-1.9c0.1-1,0.2-1.9,0.2-1.9c0.2,0.5,1.6-0.2,1,1.4c0.3-0.4,0.6-0.9,1-1.9c-0.2,0.3-0.9,0.5-0.7,0.1
							c1-0.9,0.6-0.6,1.6-1.8c-0.3,0.4-0.6-0.4-0.2-1c0.1,0.2,0.6,0.2,0.5,0.5l0.3-2c-0.1,0.5,0.4,0.3,0.7,0c-0.2,0.1,0.7-1.5,0.9-2
							l-0.5,0.7c1-2,0.1-2.3,1-4.3c0,0.3,0.5,0.9,1-0.1c-0.1-0.6-0.5-2.6-0.2-4.4l0.3-0.3l0.3-1.4c0.2,1,0.3,3.7,0.1,5.2
							c0.4-0.7,0.3-0.2,0.7-1.3c0.3-0.4,0,0.7-0.1,1.1c0,0,0.3-0.6,0.5-1.3c0.3-0.7,0.5-1.3,0.5-1.3c-0.4,0,0.3-2.2,0-2.2
							c0,0-0.2,0.7-0.3,1.5c-0.2,0.7-0.3,1.5-0.3,1.5c-0.4,0-0.4-2,0.3-3.9c0.3-0.4,0.5,0.5,0.6,0.5c-0.1-0.3,0.3-1.9,0.4-2.1
							l-0.1,0.9c0.4-1.1,0.1-1.9,0.7-3.1c0.2-0.4,0.7-1.3,0.5-1.4c-0.5,0.7-1.8,0.5-2,0c0.1-0.2,0.9-2.2,1.1-2.8
							c0.4-0.7,0.6,1.2,1,0.6c-0.1-0.1-0.2-0.5-0.2-0.6c0.2-0.5,0.3,0.3,0.4-0.8c-0.3-0.2,0.3-2.1-0.3-0.5c0-1.1,0.2-1.1,0.3-2.3
							c-0.3,0.4-0.7-1.1-0.9-2.1c0.1,0.1,0.2-0.2,0.3-0.3c0-2.1,0-3.3-0.4-5.2c0.1-0.2-0.1-1.2,0.2-0.8c-0.1-0.3-0.3-0.5-0.5-1.1
							c-0.1-1.2,0.4,1.3,0.5,0.3c-0.1,0-0.3-0.4-0.5-0.9c-0.2-0.5-0.5-1-0.7-1.4c-0.2,0.4,0.6,1.9,1,2.7c-0.4,0.1-1.2-1.2-2.2-2.9
							c-0.8-1.4-0.1-0.7-0.2-1c-0.2-0.3-0.3-0.6-0.5-0.9c-0.2-0.2-0.3-0.4-0.4-0.6c-0.3-0.3-0.5-0.5-0.7-0.7
							c-0.2-0.2-0.4-0.4-0.7-0.6c-0.1-0.1-0.3-0.3-0.4-0.4c-0.2-0.2-0.3-0.4-0.5-0.6c-0.4-0.9,0.4-0.4,0.4-0.7
							c0.5,0.5,0.8,0.9,1,1.3c0.3,0.4,0.4,0.7,0.7,1.1c0,0-0.1-0.3-0.3-0.5c-0.1-0.1-0.2-0.3-0.2-0.3c-0.1-0.1-0.1-0.2-0.1-0.2
							c0.2,0.1,0.4,0.4,0.6,0.6c0.2,0.3,0.4,0.5,0.5,0.7c-0.1-0.4-0.9-1.5-1.9-2.6c-1-1.1-2.2-2.3-2.9-3.2c-0.4-0.2-1-0.6-0.8-0.3
							l0.6,0.5c0.4,0.6-1.3-0.7-0.6,0c-0.9-0.5-1.9-1-2.9-1.9l-0.1-0.4c0,0.1,0.6,0.7,1,0.9c-0.5-0.2-1.5-1.6-2.3-1.5
							c0,0,0.2,0.2,0.4,0.3c0.2,0.2,0.3,0.4,0.3,0.4c-0.4-0.2-1-0.4-1.5-0.6c-0.5-0.2-1.1-0.4-1.6-0.7c0.4,0.5,0.3,0.1,0.9,0.8
							c-0.2-0.4,0.5-0.1,1.1,0.3c0.6,0.3,1.1,0.7,0.8,0.2c0.3,0.4,0.5,0.6,0.9,0.9c0.3,0.3,0.6,0.5,1,1.1c0.1-0.1-0.2-0.4,0.5,0.3
							c0.1,0,0.2,0.1,0.2,0.1l0.1,0.1c0,0,0-0.1-0.1-0.1c0.1,0,0.1,0,0,0c-0.2-0.2-0.3-0.4-0.3-0.4c0.5,0.1,1.8,1.2,2.2,1.5
							c0.4,0.5-0.3-0.1-0.1,0.2l0.7,0.4c-0.1,0.2,0.9,1.4-0.3,0.5l0.9,0.9c0.2,0.3,0.5,0.7,0.7,1c0.2,0.2,0.3,0.3,0.4,0.5
							c0.1,0.2,0.3,0.3,0.4,0.4c0.3,0.5,1.1,1,0.6,0.7c0,0,0.3,0.4,0.6,0.7c0.3,0.4,0.5,0.8,0.5,0.8l-0.1,0.1c0.5,0.9,1,1.7,1.3,2.6
							c0.4,1,0.7,2,0.7,3.1c0.1,0.3,0.2,0.6,0.3,1c0.1,0.4,0.1,0.8,0.2,1.4l-0.2,0.2c0.2,0.9-0.1,2.5,0.1,2.9
							c-0.3,0.4-0.4,1.4-0.4,2.6c-0.1,1.1-0.2,2.3-0.3,3l0.3,0.1c-0.2,1-0.3,2-0.5,3.3h0.3c-0.1,1.1-0.9,2.8-1.4,4.5
							c-0.1-0.2,0.1-0.6,0.3-0.9c-1.1,1.9-1,4.4-2.1,6.1c-0.1,0.5-0.3,0.8-0.4,1.1c0-0.1,0.1-0.1,0.1-0.1c0,0.1-0.1,0.1-0.1,0.2
							c-0.1,0.2-0.3,0.4-0.4,0.6c0.1-0.2,0.3-0.3,0.3-0.5c-0.2,0.3-0.3,0.9-0.5,1.4l-0.3,0.1c0,0.1-0.1,0.1-0.1,0.1
							c-0.3,0.5-0.1,0.4,0.2,0.3c-0.1,0.3-0.1,0.5-0.2,0.7c-0.5,0.2-0.5,1.4-1.1,1.8c0.1,0.4-1.1,2.6-0.8,3c-0.1,0-0.2,0.1-0.1-0.2
							c-0.3,0.5-0.6,1.1-0.8,1.6l-0.4,0.1l-0.3,1.4c-0.6,0.6-0.9,0.9-0.6,0.1c-0.6,1.9-0.6,1.5-1.1,3.1l-0.2-0.2
							c-0.3,0.5-0.5,1.5-0.9,1.7c-1,1-3.5,5.7-5.8,8.2c0.9-0.2-1.2,1.1-0.9,1.5c-0.2,0.1-0.6,0.4-0.4-0.1c-1,1.5-1.8,1.9-2.3,3.1
							c-0.3,0.1,0.1-0.4-0.1-0.3c-0.1,0.1-0.3,0.5-0.4,0.6c-0.2,0.1,0.1-0.3,0.2-0.5c-1.1,1.3-1,1.8-0.7,2.2
							c-0.7,0.5-1.1,0.9-1.3,1.5c-0.3,0.2-0.8,0.4-0.1-0.4c-0.2,0.2-0.9,0.9-1.5,1.5c-0.6,0.6-1.2,1.2-1.1,1.3
							c-0.2,0.1-0.6,0.6-0.7,0.7c-0.5,0.5-0.9,0.7-1.1,0.9c-0.3,0.3-0.6,0.5-1.1,0.9l0.3-0.2c-0.2,0.6-0.9,0.8-1.7,1.4v-0.1
							c-1.1,0.6-1.3,0.7-1.5,0.9s-0.4,0.3-1.6,0.7l0.2,0.2c0,0.3-0.5,0.4-1.2,0.6c-0.7,0.1-1.5,0.3-2.2,0.5h0.5
							c-0.4,0.2-0.9,0.2-1.5,0c-0.3-0.1-0.5-0.2-0.8-0.2c-0.3-0.1-0.5-0.2-0.6-0.2c-0.2-0.1,0.3-0.1,0.4-0.1c-0.9-0.2-1-0.1-1,0.1
							c0,0.2,0.1,0.3-0.6,0.3c-0.2-0.2,0.4-0.4-0.5-0.6c-0.1-0.1-0.3-0.1-0.6-0.2c-0.2,0-0.3-0.1-0.5-0.1c-0.2-0.1-0.3-0.1-0.5-0.2
							c-0.2-0.1-0.4-0.1-0.6-0.2c-0.2-0.1-0.4-0.2-0.5-0.3c-0.3-0.2-0.7-0.4-0.9-0.7c0.1,0.3,0.3,0.6-0.3,0.2
							c-0.2-0.2-0.4-0.4-0.6-0.6c-0.2-0.3-0.4-0.6-0.6-0.9s-0.4-0.5-0.6-0.8c-0.2-0.2-0.4-0.5-0.6-0.6c-0.1-0.2-0.1-0.2,0-0.2
							c-0.6-0.6-1.7-2.2-2.1-2.6c0.3-1.1-3.2-4.3-2.5-4.7l-1.4-2.2h0.1c-0.9-1.4-1.3-1.9-1.8-2.2c-0.2-0.4,0.1-0.2,0.1-0.2
							c-1.2-2.2-1.3-2.3-2.8-3.9l0.1-0.3c-0.1-0.1-0.3-0.4-0.4-0.7c-0.2-0.4-0.4-0.7-0.6-1.3c-0.5-1-1-2.2-1.7-3.3
							c0.1,0,0.1,0.1,0.2,0.2c-1.5-2.3-2.1-6.1-3.4-6.6l-1-1.5c0.9,2.1-0.5-0.2-0.3,0.8c-0.4-0.8-0.7-2.3-0.2-1.3v0.2
							c0.6,0.2-1-2.7-0.6-2.8c-1.8-4.2-2.9-8.5-4.1-12.5l-0.3,0.6l-0.4-1.4c0-0.4,0.2-0.6,0.4,0.4c0.1-0.6-0.6-1.7-0.7-1.7
							c-0.3-2,0.6,0.7,0.5,0.1l-0.2-0.8v0.2c-0.3-0.6-0.5-0.6-0.7-1.9c-0.1-0.8,0.2-0.4,0.1-0.7c0.1,0,0-0.1-0.1-0.5
							c0,0-0.1-0.5-0.2-0.9c-0.1-0.5-0.1-0.9-0.1-0.9l-0.2,0.8c-0.3-0.8-0.2-1.7-0.5-0.9c0.2-0.6,0-2.4-0.1-4.1
							c-0.1-1.7,0-3.3,0.1-3.6c-0.1-1.1,0.1-2.3,0.4-3.6c-0.2,0.3-0.5,0.4-0.2-0.7c0.3,0.3,0.5-0.2,0.8-0.9c0.3-0.6,0.7-1.4,1.2-1.7
							c-0.3,0.3,0-0.4,0.4-1.1c0.4-0.6,0.9-1.2,0.2-0.9c0.7-0.7,0.2,0.1,0.9-0.3c0.3-0.4,0.7-0.9,1.3-1.2c0.5-0.4,1.1-0.7,1.7-1
							c0.3-0.2,0.6-0.3,0.9-0.4c0.3-0.2,0.6-0.3,1-0.4c0.6-0.2,1.3-0.5,2-0.6c0-0.1-0.5-0.1,0.1-0.4c0,0,0.1,0,0.3,0
							s0.3,0.1,0.5,0.1c0.4,0.1,0.7,0.2,0.7,0.2c0.3-0.1,0.4-0.2,0.5-0.3c0.2-0.1,0.4-0.2,0.9,0.1c-0.1-0.1-0.3-0.3,0.1-0.2
							c2.7,0.4,5.2,1.9,7.1,4.1c2,2.1,3.5,4.8,4.3,7.6c-0.2-0.8,0.1-0.3,0.3,0.2c-0.1-0.4,0.2-0.1,0.3-0.2c0,0,0.1,0.2,0.1,0.4
							c0.1,0.2,0.1,0.5,0.2,0.9c0.2,0.6,0.3,1.2,0.3,1.2c0.5,0.3,0.9,2.5,1.3,2.7l-0.3-0.7c0.7,0.9,0.4-1.7,0.9-1.7
							c-0.4-0.5-0.5-1.3-0.7-2.2c-0.2-0.9-0.5-1.9-1.2-2.6c-0.1-0.4,0.3,0.3,0.3,0c-0.4-0.4-0.7-0.9-1.2-1.9l0.1,0.1
							c-0.8-1.4-1.4-2.3-2.1-3.4c-0.7-1-1.4-2-2.8-3.4c0,0,0,0.1,0,0.2c0,0.1,0,0.2,0,0.2c-0.6-0.5-0.7-0.7-1-1
							c-0.5-0.1-0.1,0.2,0.4,0.6c0.5,0.4,0.9,0.8,0.4,0.6c-0.1-0.3-0.4-0.6-0.9-1c-0.2-0.2-0.5-0.4-0.7-0.5
							c-0.2-0.1-0.3-0.2-0.4-0.3l-0.5-0.3c-0.6-0.4-1.2-0.6-1.8-0.8c-0.5-0.2-1-0.4-1.1-0.5c-1.3-0.2,0.3,0.3-1,0.2l-0.3-0.2
							l-0.3,0.2c-0.8-0.1-1.2-0.2-1.3-0.4c0.2,0,0.6-0.1,0.8-0.1c-0.3-0.1-0.6-0.1-1-0.1c-0.4,0.1-0.7,0.1-1.1,0.2
							c-0.3,0.1-0.6,0.2-0.9,0.2c-0.3,0.1-0.4,0.1-0.5,0.1c0,0,0.3-0.1,0.6-0.1c0.2,0,0.3-0.1,0.4-0.1c0.1,0,0.2,0,0.2,0
							c-1.7,0.4-3.5,1.1-5.1,2c-0.4,0.3-0.8,0.5-1.2,0.7c-0.4,0.3-0.7,0.5-1.1,0.9c-0.7,0.6-1.3,1.3-1.8,1.9l0.3-0.1
							c-0.7,1-1,1.4-1.3,1.9c-0.3,0.4-0.6,0.9-1.1,2.1v-0.1c-0.1,0.5-0.3,1.2-0.5,1.9c0.1-0.7-0.6,1.2-0.5,0.3
							c-0.2,1.3-0.2,1.7-0.2,1.9c0.1,0.2,0.1,0.3,0.2,1.2l-0.2,0.4c0.2,0.6,0.2,0.6,0.2,1.9c-0.2-1.1-0.3,0.8-0.5-0.4
							c-0.3,1.4-0.1,2.4,0.1,3.3c0.1,0.8,0.3,1.4,0,2.1c0.4,0.6,0.3,0,0.3-0.6c-0.1-0.6-0.1-1.4-0.1-1c0.2-0.6,0.5,1,0.5,1.8
							c0.1,0.9-0.5,1.5-0.1,3.7c-0.1-0.2-0.1-0.2-0.1-0.4c0,0.9,0.5,1.5,0.5,2.6c0.4,0.5,0.3,1.3,0.7,1.3c0,0-0.2-0.5-0.3-1
							c-0.1-0.5-0.3-1-0.3-1c0.4,1.1,1.1,2,1.3,3.8c-0.1-0.1-0.4-0.6-0.5-1c0,0.5,0.3,1,0.4,1.5c-0.5-0.1-0.7-2.3-1.3-3.4
							c-0.1,0.6,0.9,2.1,0.3,1.7c0.8,0.7,0.5,2.1,1.3,3.4h-0.3c0.1,0.2,0.4,0.6,0.5,1.1l-0.5-0.6c0.6,1.1,0.5,2.3,1,3.3
							c-0.7-2.3,0.1-0.6,0-1.6c0.6,1.3,0.6,1.8,0.6,2.3c-0.1,0.5-0.1,1.1,0.6,2.6c-0.2-0.4-0.4-1.7-0.1-1c0.2,0.6,0.4,1.4,0.4,1.8
							c0.9,2,0.1-0.4,0.6,0.4c0,0.8,0.5,1,1,1.8l-0.2,0.1c0.8,2.3,0.7,0.4,1.4,2.6l-0.7-0.7l0.5,1l-0.4-0.1c0.7,1.1,0.8,1.4,1.2,2.6
							c0.1-0.3,0.5-0.1,1,1c0.2,0.7-0.4-0.3,0.3,1.1c-0.3-0.3-0.6-0.5-0.7-1.2c-0.1-0.1-0.3-0.3-0.4-0.3c0.2,0.8,0.8,1.9,1.1,2.3
							c-0.1-0.2-0.2-0.4-0.2-0.6l1.3,1.9c0.1,0.4-0.1,0.2-0.3-0.1c0.2,0.4,0.5,0.6,0.8,1.2c-0.3-0.1-0.4,0.1-1-0.7l1.2,1.8
							c0,0.2,0.3,1.1,0.1,0.9c0.2,0.6,0.6,1.2,1.1,1.8c0.2,0.3,0.5,0.6,0.7,1l0.4,0.6c0.1,0.2,0.2,0.3,0.3,0.5
							c0.1,0.1,0.2,0.2,0.4,0.4c0.7,1.3,1.2,2.5,2.4,3.8l0.2,1.1c0.8,1.1-0.3-1.4,1,0.5c1,1.3,0.1,0.7,0.3,1.2
							c0.6,0.6,1.7,1.5,2.2,3C38.3,222.7,38.1,222.4,37.8,222z M49.3,235.1c-0.4-0.1-1.1-0.3-1.3-0.5
							C48.5,234.5,48.7,234.8,49.3,235.1z M71.5,222.8c-0.1,0.3-0.4,0.5-0.7,0.7C71,223.4,71.2,223.1,71.5,222.8z M86.9,158.7
							L86.9,158.7C87.3,159.3,87.2,159.1,86.9,158.7z M86,157.5c-0.1-0.1-0.2-0.1-0.1,0c0.1,0.1,0.4,0.3,0.6,0.5
							C86.4,157.9,86.3,157.8,86,157.5z M21.1,178.1v0.3C20.9,177.8,21,178,21.1,178.1z"/>
						<path fill="#CC2829" d="M69.8,225.3c-0.1,0.1-0.2,0-0.2,0C69.6,225.4,69.6,225.4,69.8,225.3z"/>
						<path fill="#CC2829" d="M32.1,213.2L32.1,213.2c-0.1-0.1-0.1-0.1-0.1-0.1L32.1,213.2z"/>
						<path fill="#CC2829" d="M93.8,178.6c-0.1,0.3-0.2,0.5-0.2,0.6C93.7,179.2,93.7,179.1,93.8,178.6z"/>
						<path fill="#CC2829" d="M79.8,152.9c0,0,0.2,0.1,0.4,0.2c0.2,0.1,0.4,0.2,0.4,0.2c-0.4-0.2-0.5-0.4-0.6-0.5
							C79.9,152.9,80,153.1,79.8,152.9z"/>
						<path fill="#CC2829" d="M72.7,148.9c-0.2,0.1-0.3,0-0.4,0l0.1,0.1C72.9,149.1,73.3,149,72.7,148.9z"/>
						<path fill="#CC2829" d="M79.5,151.8c0.1-0.2-0.5-0.4-1.1-0.7c0.1,0,0.1,0.1,0.1,0.1C78.1,151.3,78.8,151.5,79.5,151.8z"/>
						<path fill="#CC2829" d="M78.2,151c-0.2-0.1-0.4-0.2-0.5-0.3C77.5,150.9,77.9,150.9,78.2,151z"/>
						<path fill="#CC2829" d="M84.5,156.3c-0.2-0.3-0.3,0.1-0.4-0.1C83.7,156.1,85.9,157.4,84.5,156.3z"/>
						<path fill="#CC2829" d="M79.3,150.9l0.1,0.4c0,0,0.1,0,0.2,0s0.2,0,0.2,0s-0.1-0.1-0.3-0.2C79.5,151,79.3,150.9,79.3,150.9z"
							/>
						<path fill="#CC2829" d="M83.6,154.1l-0.8-0.7c0,0.1-0.2,0-0.3-0.1C83.1,153.6,83.6,154.2,83.6,154.1z"/>
						<path fill="#CC2829" d="M82.6,153.2c-0.3-0.2-0.5-0.4-0.7-0.5C82,152.9,82.3,153.1,82.6,153.2z"/>
						<path fill="#CC2829" d="M80.7,151.5c0,0,0.1,0.1,0.1,0.1c0.1,0.1,0.1,0.1,0.1,0.1l0.6,0.4c0,0-0.2-0.2-0.4-0.3
							C80.9,151.7,80.7,151.5,80.7,151.5z"/>
						<path fill="#CC2829" d="M91,163c0,0,0.2,0.3,0.3,0.5s0.3,0.5,0.3,0.5c0.1,0.1,0.1-0.3-0.2-0.6C91.2,163.1,91,162.7,91,163z"/>
						<path fill="#CC2829" d="M89.8,159.4c0.2,0.3,0.1,0.4,0.2,0.5l0.3-0.2L89.8,159.4z"/>
						<path fill="#CC2829" d="M91.6,162.5c0.2,0.1,1,1.5,0.3,0.1C91.8,162.5,91.2,161.4,91.6,162.5z"/>
						<polygon fill="#CC2829" points="92.6,180.3 92.6,180 92.1,180 						"/>
						<path fill="#CC2829" d="M89,195.8c0.7-1.3-0.2-0.4,0.5-1.5c0-0.4-0.5,0.9-0.5,0.6C88.8,195.7,88.5,196.1,89,195.8z"/>
						<path fill="#CC2829" d="M89,194.8c0.1-0.2,0.1-0.3,0.1-0.4C89,194.6,89,194.7,89,194.8z"/>
						<polygon fill="#CC2829" points="46.8,170.7 46.9,171.6 46.9,171 						"/>
						<path fill="#CC2829" d="M47.6,172.2l-0.3,0.3l0.4,0.4C47.7,172.7,47.6,172.4,47.6,172.2z"/>
						<path fill="#CC2829" d="M52,236.4l0.1-0.1c-0.2-0.1-0.4-0.2-0.9-0.2L52,236.4z"/>
						<polygon fill="#CC2829" points="41.5,228.2 41.6,228.4 41.6,227.9 						"/>
						<path fill="#CC2829" d="M35.6,219.7c0.2,0.4,0.5,0.7,0.7,1.1C35.8,220,35.9,219.4,35.6,219.7z"/>
					</g>
				</g>
			</g>
		</g>
	</g>
	<g>
		<path fill="#CC2829" d="M47.1,171c0,0-5.1-24.5-22.1-14.2c-18.1,10.9,8,53.7,8,53.7s6.4,11,11.4,17.7c10.9,15,30.8-16,29.6-14.3
			c0,0,26.7-38.6,11.9-55.4C62.8,132.4,47.1,171,47.1,171z"/>
		<g>
			<g>
				<path opacity="0.1091" fill="#CC2829" enable-background="new    " d="M45.6,172.4c0.7-2.6,1.3-5.3,1.8-7.9
					c0.4-1.4,0.5-2.8,0.4-4.3c-0.2-1.3-0.5-2.8-1.1-3.9c-1.2-2.5-2.9-4.6-5.1-6.3c-3.3-2.6-7.3-3.5-11.5-3c-3,0.3-5.8,1.5-8.4,2.9
					c-2.7,1.4-5.4,3.6-7.2,6.1c-3.6,5-4.6,11.8-4.1,17.8c0.5,5.7,1.9,11.2,3.8,16.6c2.9,8.4,6.9,16.5,11.5,24.1
					c1,1.6,1.9,3.4,3.1,4.8c1,1.1,1.7,2.6,2.4,3.8c2,3.3,4.1,6.4,6.3,9.5c1.1,1.5,2.2,3.3,3.4,4.7c1,1.2,2.2,2.3,3.6,3
					c1.8,0.7,3.6,1,5.5,1c2.6-0.1,5-1,7.2-2c4.2-1.9,7.9-4.8,11.2-7.9c3.3-3.1,6.2-6.7,8.8-10.4c1.4-2.1,2.9-4.2,4.1-6.3
					c0.4-0.7-0.4-1-1-0.9c-0.7,0.1-1.5,0.1-2.3,0.2c0.2,0.4,0.3,0.9,0.5,1.3c1-0.5,1.7-1.2,2.3-2.1c1.3-1.6,2.4-3.5,3.5-5.3
					c3.7-6.1,6.9-12.6,9.3-19.5c2.4-7,4.1-14.7,3-22.2c-0.3-2-0.8-3.9-1.5-5.8c-0.7-1.8-1.6-3.5-2.8-5c-1.7-2.2-3.7-4.3-5.9-6.1
					c-3.5-2.8-7.4-5.3-11.7-6.4c-3.5-1-7.4-1.1-10.9-0.2c-6.8,1.7-12.5,6.6-16.7,12c-2.9,3.9-5.3,8.2-7.4,12.6
					c-0.6,1.3-1.2,2.7-1.7,4.1c-0.3,0.8-0.6,1.7-0.6,2.5c-0.1,0.9,4.1-0.9,4.4-1c1.2-0.5,2.5-1.1,3.6-1.7c0.9-0.3,1.7-0.9,2.3-1.5
					c0.3-0.4,0.6-0.7,1-1.1c0.3-0.6,0.6-1.1,1-1.7c0.4-0.5,0.7-1.1,1-1.6c2.2-3.7,4.9-6.7,7.9-9.6c-0.1,0.1-0.3,0.2-0.4,0.3
					c1-0.8,2-1.6,3-2.3c-0.2,0.1-0.3,0.2-0.4,0.3c1.5-0.9,3-1.8,4.7-2.3c1.7-0.6,3.5-0.9,5.3-0.7c0.9,0.1,1.7,0.2,2.5,0.4
					c0.9,0.3,1.8,0.6,2.7,1.1c2.9,1.3,5.3,3.4,7.7,5.4c-0.1-0.1-0.2-0.2-0.3-0.4c1.3,1.4,2.5,2.8,3.6,4.4c-0.1-0.2-0.2-0.3-0.3-0.4
					c0.4,0.8,0.9,1.6,1.3,2.4c-0.1-0.2-0.2-0.3-0.2-0.4c0.3,0.9,0.6,1.7,1,2.5c-0.1-0.2-0.1-0.3-0.2-0.4c0.6,2.3,1,4.5,1,6.8
					c0.1,2.5-0.3,5-0.7,7.4c-1,5.2-2.8,10.3-4.9,15.2c-2,4.5-4.3,9-6.7,13.3c-1.3,2.4-2.4,5-4,7.3c0.2-0.2,0.3-0.3,0.4-0.5
					c-1.1,1-1.9,2.1-2.8,3.1c-1.8,2.1-3.4,4.2-5.4,6.1c-2.1,2.1-4.5,4.1-7.1,5.5c-1.1,0.5-2.2,1-3.4,1.4c-1.4,0.4-3.1,0.4-4.6,0.7
					c0.2,0,0.3,0,0.5-0.1c-0.6-0.1-1.2-0.1-1.8-0.1c0.2,0,0.3,0.1,0.5,0.1c-1.1-0.3-2.1-0.5-3.1-0.9c0.2,0.1,0.3,0.1,0.5,0.2
					c-0.6-0.3-1.2-0.6-1.7-0.9c0.2,0.1,0.3,0.2,0.4,0.2c-1.1-0.9-2.1-1.8-3-3c-0.7-1-1.2-2-1.9-3c-1.7-2.5-3.3-5-5-7.6
					c-1.4-2.2-2.9-4.4-4.2-6.8c-0.3-0.6-0.7-1.1-0.9-1.8c-0.4-1.5-1.3-2.8-1.9-4.2c-1.2-2.7-2.3-5.3-3.5-8
					c-1.3-3.4-2.6-6.8-3.6-10.3c-1.1-4.1-1.8-8.2-2.1-12.4c0,0.2,0,0.3,0,0.5c0-0.9,0-1.8-0.1-2.6c0,0.2,0,0.3,0,0.5
					c0.2-2.4,0.4-5.1,1.3-7.6c0.7-2.1,2.1-4.1,3.8-5.5c1-0.7,2.1-1.3,3.3-1.7c1.1-0.6,2.3-1,3.5-1.1c1.9-0.3,3.7,0.1,5.4,0.9
					c-0.2-0.1-0.3-0.2-0.4-0.3c0.5,0.3,1.1,0.7,1.6,1c-0.1-0.1-0.3-0.2-0.4-0.3c0.5,0.4,1,0.8,1.5,1.2c-0.1-0.1-0.3-0.2-0.4-0.3
					c1,1.1,1.9,2.1,2.6,3.4c0.5,1,1,2.1,1.3,3.2c0.2,0.4,0.3,0.9,0.4,1.3c0.2,0.6,0.3,1.2,0.4,1.9c0.4,1,0.8,1.8,1.1,2.8
					c0.5-2.7,1-5.4,1.5-8.1c-0.2,0.2-0.4,0.3-0.6,0.4c0.2-0.1,0.3-0.1,0.4-0.2c-0.7,0.2-1.4,0.2-2.1,0.1c-1.2-0.1-0.2,4.8-0.2,4.9
					c0.2,1.3,0.4,2.5,0.8,3.7C44.8,172.1,45.1,172.3,45.6,172.4z"/>
				<path opacity="0.1091" fill="#CC2829" enable-background="new    " d="M47.6,170.4c0.6-3.9,1.1-7.8,1.5-11.8
					c-0.1-0.6-0.1-1.3-0.1-1.9c-0.2-1.4-0.7-2.7-1.3-3.9c-1.2-2.5-3-4.8-5.2-6.5c-1.7-1.3-3.5-2.1-5.6-2.7c-2.6-0.6-4.9-0.5-7.5,0.1
					c-3,0.7-5.8,2.1-8.4,3.7c-2.7,1.7-4.9,3.8-6.4,6.6c-2.8,4.7-3.8,10.4-3.5,15.9c0.3,6.4,1.9,12.7,4.1,18.7
					c3.3,8.9,7.6,17.6,12.7,25.6c0.6,1,1.4,2,2,2.9c1.7,2.5,3.2,5,4.9,7.5c1.1,1.7,2.2,3.4,3.4,5.1c1.1,1.5,2.2,3.3,3.4,4.7
					c1,1.2,2.2,2.3,3.6,2.9c1.4,0.6,2.8,1,4.4,1.1c2.6,0.3,5.1-0.5,7.5-1.3c2.6-0.9,4.9-2.3,7-3.9c2.8-2,5.4-4.6,7.8-7.2
					c3-3.3,5.7-6.8,8.1-10.5c0.7-1.1,1.4-2.1,2-3.3c0.3-0.6,0.6-1.1,0.8-1.8c0.2-0.9-2.7-0.5-2.5-0.5c-0.5,0.1-1.1,0.1-1.7,0.2
					c0.6,0.4,1.2,0.7,1.8,1.1c1.3-1.1,2.1-2.3,3-3.7c1.5-2.2,3-4.4,4.3-6.8c3-5.4,5.5-11.1,7.5-16.9c1.8-5.5,3-11.4,2.9-17.2
					c-0.1-3.7-0.8-7.5-2.4-10.9c-1.6-3.4-4.1-6-6.8-8.5c-6-5.3-13.4-9.4-21.6-8.3c-6.4,0.9-12,4.8-16.5,9.4c-3.9,4.1-7,8.8-9.4,13.9
					c-0.9,1.8-1.7,3.6-2.4,5.5c-0.3,0.7-0.7,1.6-0.7,2.5c-0.1,1.5,2,0.2,2.5-0.1c1.2-0.7,2.3-1.4,3.4-2.2c0.7-0.4,1.2-0.9,1.5-1.5
					c0.2-0.3,0.5-0.6,0.7-0.9c-0.2,0.2-0.3,0.4-0.5,0.6c1.4-1.8,2.6-3.7,3.8-5.6c1.7-2.6,3.6-5,6-7c2.2-1.9,4.6-3.4,7.3-4.4
					c1.3-0.5,2.7-0.7,4.1-0.9c1.7-0.2,3.2,0.1,4.8,0.3c-0.2,0-0.3-0.1-0.5-0.1c1.1,0.3,2.2,0.7,3.4,1.1c-0.2-0.1-0.3-0.2-0.5-0.2
					c1.2,0.6,2.4,1.3,3.6,1.9c0.6,0.4,1.1,0.9,1.7,1.3c1.5,1,2.9,2.2,4.1,3.5c0.7,0.9,1.5,1.8,2.2,2.7c1.2,1.5,2.1,3.4,2.6,5.3
					c0.7,2.5,0.8,5,0.8,7.5c0-0.2,0-0.3,0.1-0.5c-0.1,1-0.2,1.9-0.2,2.8c0-0.2,0.1-0.3,0.1-0.5c-0.1,1-0.3,2-0.4,2.9
					c0-0.2,0.1-0.3,0.1-0.5c-1.6,8.4-4.8,16.3-8.7,23.9c-1.3,2.6-2.8,5.2-4.4,7.7c-0.7,1.2-1,2.7-1.8,3.9c-0.3,0.5,0.1,1,0.6,1.1
					c1.1,0.3,2.7-0.1,3.8-0.3c0.7-0.2,1.5-0.3,2.2-0.5c-1.9-0.3-3.8-0.5-5.7-0.9c-0.4,0.2-0.7,0.4-1.1,0.6c-0.2,0.3-0.4,0.6-0.6,1
					c-0.6,1-1.3,1.9-1.9,2.8c-2.5,3.7-5.3,7-8.4,10.1c0.1-0.1,0.2-0.2,0.3-0.3c-0.6,0.6-1.2,1.2-1.9,1.7c0.1-0.1,0.2-0.2,0.4-0.3
					c-0.6,0.5-1.3,1.1-1.9,1.6c0.1-0.1,0.3-0.2,0.4-0.3c-0.6,0.5-1.3,1-2,1.4c0.1-0.1,0.3-0.2,0.4-0.2c-0.6,0.4-1.3,0.7-1.9,1.1
					c0.2-0.1,0.3-0.1,0.4-0.2c-1.2,0.6-2.5,1.1-3.7,1.5c-1.1,0.4-2.2,0.5-3.4,0.5c0.2,0,0.3,0.1,0.5,0.1c-0.7-0.1-1.4-0.2-2.1-0.3
					c0.2,0.1,0.3,0.1,0.4,0.1c-0.7-0.2-1.4-0.4-2.1-0.6c0.2,0.1,0.3,0.1,0.4,0.2c-1.1-0.5-2.1-1.2-2.9-2.1c-0.4-0.5-0.9-1.1-1.3-1.6
					c-0.6-1-1.2-2-1.9-2.9c-0.4-0.5-0.7-1.1-1.1-1.7c-2.1-3.2-4.2-6.4-6.3-9.6c-0.9-1.3-1.9-2.6-2.6-4c-0.3-0.6-0.5-1.3-0.9-1.9
					c-1-1.7-1.8-3.3-2.7-5c-4.5-9.2-8.8-19-9.8-29.4c-0.5-4.9,0.1-10.2,3.1-14.3c1.2-1.7,2.6-2.9,4.4-3.9c0.9-0.6,1.8-1,2.8-1.2
					c1.3-0.2,2.7-0.3,4.1-0.6c-0.2,0-0.3,0.1-0.5,0.1c0.7,0.1,1.4,0.1,2.2,0.1c-0.2,0-0.3,0-0.5-0.1c0.6,0.1,1.1,0.2,1.7,0.2
					c-0.3-0.1-0.4-0.1-0.6-0.1c0.9,0.4,1.9,0.7,2.8,1c-0.2-0.1-0.3-0.2-0.4-0.3c0.5,0.3,1,0.6,1.5,0.9c-0.2-0.1-0.3-0.2-0.4-0.3
					c0.5,0.4,0.9,0.8,1.4,1.2c-0.1-0.1-0.3-0.2-0.4-0.3c0.5,0.4,0.9,0.8,1.4,1.2c-0.1-0.1-0.3-0.2-0.4-0.4c1.4,1.6,2.5,3.3,3.3,5.2
					c0.4,0.9,0.9,1.8,1.3,2.7c0.2,0.4,0.4,0.9,0.6,1.3c0.5,1.4,1.2,2.7,2.1,3.8c0.1-3.5,0.2-6.9,0.4-10.4c-0.8,0.2-1.6,0.2-2.4,0.1
					c-1.2-0.1,0.5,5.8,0.5,5.8c0.3,1.5,0.7,2.9,1.2,4.4C46.8,169.9,47.1,170.3,47.6,170.4z"/>
				<path opacity="0.1091" fill="#CC2829" enable-background="new    " d="M49,172.2c0.3-3.6,0.5-7.1,0.9-10.7c0-0.3,0-0.6-0.1-1
					c-0.1-1.2-0.3-2.2-0.7-3.4c-1-2.7-2.8-5.2-5-7.1c-3.4-2.9-7.7-4-12.1-3.5c-2.9,0.3-5.7,1.5-8.2,2.8c-2.8,1.4-5.2,3.5-7.2,6
					c-1.9,2.4-2.9,5.4-3.6,8.3c-0.7,3-0.8,6.2-0.6,9.3c0.3,6.1,2.1,12.2,4.2,17.9c1.3,3.7,2.9,7.2,4.5,10.7
					c2.1,4.4,4.4,8.7,6.9,12.8c0.9,1.4,1.8,2.9,2.8,4.3c0.5,0.6,0.8,1.2,1.2,1.9c0.8,1.3,1.6,2.6,2.4,3.8c2.2,3.4,4.3,6.7,6.7,9.9
					c1,1.4,2,2.8,3.3,4c1.5,1.3,3.1,1.9,5.2,2.2c1.2,0.3,2.4,0.3,3.6,0.2c1.3-0.2,2.5-0.5,3.7-1c2.6-0.9,4.8-2.1,7-3.6
					c4.1-2.8,7.7-6.4,10.9-10.2c2.1-2.5,4.1-5.1,5.9-7.8c0.7-1.1,1.4-2.1,2.1-3.3c0.3-0.6,0.7-1.1,0.8-1.8c0.2-0.9-3.8,0.1-3.1-0.1
					c-0.7,0.2-1.5,0.3-2.2,0.5c0.6,0.4,1.2,0.7,1.7,1.2c1-0.5,1.9-1.3,2.7-2.1c1.4-1.6,2.6-3.5,3.7-5.2c3.8-6,7-12.6,9.3-19.4
					c2-5.9,3.5-12,3.3-18.2c-0.1-2.4-0.4-4.8-1-7.1c-0.5-1.8-1.2-3.5-2.1-5.2c-1.2-2.2-2.7-4.1-4.6-5.8c-6-5.8-13.9-10.7-22.7-9.6
					c-7,0.9-13.1,5.2-17.6,10.4c-3.5,4-6.3,8.5-8.6,13.3c-0.8,1.7-1.5,3.4-2.2,5.1c-0.3,0.8-0.6,1.6-0.6,2.5
					c-0.1,0.9,3.6-0.7,3.9-0.9c1.1-0.5,2.2-1,3.2-1.5c0.8-0.3,1.5-0.8,2.1-1.4c0.2-0.2,0.4-0.5,0.5-0.7c0.6-0.7,1-1.5,1.4-2.3
					c1.5-2.5,2.9-5,4.8-7.2c2.1-2.5,4.6-4.9,7.5-6.5c1.5-0.8,3.1-1.5,4.8-1.8c1.8-0.3,3.4-0.2,5.2-0.1c-0.2,0-0.3-0.1-0.5-0.1
					c1.3,0.3,2.5,0.7,3.7,1.1c-0.2-0.1-0.3-0.1-0.5-0.2c1.3,0.6,2.6,1.4,3.9,2.2c-0.2-0.1-0.3-0.2-0.4-0.3c0.7,0.6,1.5,1.2,2.2,1.7
					c-0.1-0.1-0.3-0.2-0.4-0.3c0.8,0.7,1.7,1.4,2.5,2.1c-0.1-0.1-0.3-0.2-0.4-0.3c0.8,0.9,1.7,1.7,2.5,2.5c-0.1-0.1-0.2-0.3-0.3-0.4
					c0.6,0.9,1.2,1.8,1.8,2.7c-0.1-0.2-0.2-0.3-0.3-0.4c0.4,0.7,0.9,1.4,1.3,2.2c-0.1-0.2-0.2-0.3-0.2-0.4c0.3,0.8,0.6,1.6,1,2.4
					c-0.1-0.2-0.1-0.3-0.2-0.5c0.3,0.8,0.5,1.7,0.7,2.5c-0.1-0.2-0.1-0.3-0.2-0.5c0.4,2.2,0.6,4.3,0.5,6.5c-0.1,2.4-0.5,4.8-1,7.1
					c-1.2,5.5-3.3,10.9-5.7,15.9c-2,4.4-4.3,8.6-6.7,12.7c-1.2,2.1-2.2,4.4-3.8,6.2c-0.6,0.7,0.7,0.9,1,0.9c0.1,0,0.2,0,0.3,0
					c0.5-0.6,0.9-1.3,1.4-2c-1.1,0.2-2.1,0.6-3,1.2c-0.3,0.3-0.5,0.6-0.7,0.9c-1.1,1.2-2.1,2.5-3.3,3.6c-3.1,3.5-6.8,6.2-10.9,8.4
					c0.2-0.1,0.3-0.2,0.5-0.2c-1,0.4-1.9,0.7-2.8,1.1c0.2-0.1,0.3-0.1,0.5-0.1c-0.7,0-1.4,0.2-2.1,0.5c-0.5,0.3-1.1,0.4-1.7,0.4
					c-0.4-0.1-0.7-0.1-1.1-0.1c-0.9,0-1.7-0.2-2.5-0.6c0.2,0.1,0.3,0.2,0.4,0.3c-0.5-0.4-1.1-0.7-1.6-1.1c0.2,0.1,0.3,0.2,0.4,0.3
					c-0.9-0.8-1.7-1.6-2.4-2.6c-0.3-0.4-0.5-0.9-0.7-1.3c-0.4-0.5-0.7-1.1-1.1-1.6c-1.7-2.5-3.4-5-5-7.5c-1.2-1.8-2.3-3.6-3.4-5.4
					c-0.4-0.6-0.9-1.3-1.2-2.1c-0.1-0.3-0.2-0.6-0.3-0.9c-0.3-0.7-0.7-1.3-1.1-2c-1.1-2-2-4.1-3-6.2c-3.1-6.8-5.7-13.7-7.4-21
					c0.1,0.2,0.1,0.3,0.1,0.5c-0.2-1-0.4-2-0.5-2.9c0,0.2,0.1,0.3,0.1,0.5c-0.1-1-0.2-2-0.4-2.9c0,0.2,0.1,0.3,0.1,0.5
					c-0.1-1-0.1-1.9-0.2-2.8c0,0.2,0,0.3,0,0.5c0-0.9,0.1-1.9,0.1-2.8c0,0.2-0.1,0.3-0.1,0.5c0.1-0.9,0.2-1.7,0.3-2.6
					c-0.1,0.2-0.1,0.3-0.1,0.5c0.3-1.5,0.6-2.9,1.2-4.3c-0.1,0.2-0.2,0.3-0.2,0.4c0.6-1.3,1.3-2.5,2.1-3.6c-0.1,0.1-0.2,0.3-0.3,0.4
					c0.5-0.5,1.1-1.1,1.7-1.7c-0.1,0.1-0.3,0.2-0.4,0.3c0.6-0.5,1.3-1,1.9-1.5c-0.2,0.1-0.3,0.2-0.4,0.3c0.7-0.4,1.5-0.8,2.3-1.2
					c-0.2,0.1-0.3,0.2-0.4,0.2c1.4-0.4,2.8-0.7,4.3-1.1c-0.2,0-0.3,0.1-0.5,0.1c0.7-0.1,1.5-0.1,2.3-0.1c-0.2,0-0.3,0-0.5,0
					c0.6,0.1,1.2,0.1,1.9,0.2c-0.2-0.1-0.3-0.1-0.5-0.1c1,0.3,2.1,0.7,3,1.1c-0.2-0.1-0.3-0.2-0.5-0.2c2.5,1.5,4.4,3.6,5.7,6.3
					c0.6,1.3,1.1,2.6,1.6,3.9c0.2,0.4,0.3,0.9,0.5,1.3c0.1,0.7,0.4,1.4,1,1.9c0.7-3.2,1.4-6.3,2.1-9.5c-1,0.6-2,1.3-2.9,2
					c-0.4,0.3-0.4,0.8-0.4,1.2c0.1,0.6,0.2,1.1,0.3,1.7c0.3,1.2,0.5,2.4,0.9,3.6c0.3,1,0.5,2.2,1.1,3.1c0.1,0.3,0.2,0.4,0.5,0.4
					C48.7,172.6,48.9,172.6,49,172.2z"/>
				<path opacity="0.1091" fill="#CC2829" enable-background="new    " d="M47.7,164.1c1.6-0.1,3.4-0.1,4.3-1.8
					c0.3-0.6,0.5-1.3,0.5-2c0-1.6-0.3-3.3-1.1-4.6c-1.8-3.2-4.5-6.1-7.7-7.7c-4.1-2-9.2-2.3-13.5-0.9c-3.4,1.1-6.6,2.8-9.4,5
					c-5.4,4.2-8.6,11-8.8,17.8c-0.2,5.4,0.9,10.8,2.3,15.9c2,6.9,4.9,13.4,8.2,19.8c2.2,4.4,4.6,8.7,7.1,12.8c1,1.5,1.9,3,3,4.4
					c0.5,0.7,1,1.5,1.5,2.3c1.2,1.9,2.5,3.8,3.7,5.7c1.1,1.7,2.2,3.4,3.4,5.1c1.1,1.5,2.2,3.3,3.4,4.7c1.3,1.6,2.9,2.7,4.7,3.4
					c2.8,1,5.8,0.9,8.7,0.1c5.2-1.4,9.8-4.8,13.8-8.3c4.2-3.7,7.7-8.1,10.9-12.7c0.9-1.3,1.9-2.7,2.7-4.1c0.5-0.9,1.3-1.8,1.4-2.8
					c0.1-0.5-0.4-1-1-0.8c-1.1,0.3-2.1,0.6-3.2,0.9c-0.2,0.8-0.5,1.7-0.7,2.5c1.4-0.9,2.8-1.9,3.9-3.1c0.5-0.6,1.1-1.1,1.6-1.7
					c1.1-1.2,1.7-2.8,2.3-4.3c-0.1,0.2-0.2,0.3-0.2,0.5c5.4-9.2,10.1-19.1,12-29.7c1.2-6.6,1.2-13.6-1.5-19.9
					c-1.6-3.6-4-6.5-6.8-9.2c-3.3-3.1-7-5.7-11.1-7.5c-2.9-1.2-6-1.9-9.2-2c-2,0.1-4,0.3-6,0.9c-1.9,0.6-3.8,1.3-5.5,2.2
					c-1.7,1-3.4,2-4.9,3.3c-2.9,2.3-5.4,5.1-7.6,8.1c-3,4.1-5.5,8.6-7.4,13.3c-0.5,1.3-1,2.7-1.4,4c-0.3,0.9-0.5,1.7-0.6,2.6
					c-0.1,0.7,0.6,1,1.2,0.9c0.5-0.1,2-0.5,2-1.2c-0.1-1,0.4-2.1,0.7-3c0.7-2.4,1.7-4.9,2.7-7.1c1.6-3.5,3.6-6.8,6-9.8
					c0.5-0.6,1.1-1.3,1.6-2c1.2-1.4,2.5-2.6,3.9-3.7c1.3-1.3,2.8-2.3,4.5-3c1.5-1,3.3-1.8,5.1-2.2c1.8-0.4,3.7-0.7,5.5-0.7
					c2.9-0.1,6.1,0.9,8.6,2.2c2.2,1.1,4.2,2.4,6.1,3.9c5.2,3.3,8.4,7.8,9.3,13.6c1.2,2.2,1.8,4.4,1.8,6.8c0.4,9.8-3.1,19.3-7,28.1
					c0.1-0.2,0.2-0.3,0.2-0.5c-0.4,1-0.9,1.9-1.3,2.9c0.1-0.2,0.2-0.3,0.2-0.5c-0.5,0.9-0.9,1.9-1.4,2.8c0.1-0.2,0.2-0.3,0.3-0.5
					c-0.9,1.8-1.9,3.5-2.8,5.3c-0.6,1.1-1.3,2.2-1.8,3.4c-0.2,0.6-0.3,1.2-0.4,1.8c-0.3,0.5-0.5,1-0.7,1.5c-0.5,0.7-1.5,1.5-2.2,2
					c0.5-0.3,1-0.7,1.4-1c-0.2,0.1-0.4,0.3-0.6,0.4c-0.5,0.3-1.5,0.9-1.5,1.5c-0.1,0.4,0.4,1.1,0.9,1c0.2-0.1,0.4-0.1,0.6-0.2
					c0.1-0.6,0.2-1.2,0.2-1.9c-0.9,0.4-1.5,1-1.9,1.8c0.1-0.2,0.2-0.3,0.4-0.5c-3.9,5.1-8,10.2-13.2,14.1c-1.4,1.1-2.8,2-4.4,2.8
					c-0.8,0.4-1.5,0.8-2.3,1.2c-0.6,0.2-1.3,0.5-2,0.7c-0.7,0.4-1.5,0.7-2.4,1c-0.8,0.3-1.6,0.4-2.4,0.4c-0.6,0-1.2,0.1-1.7,0.1
					c-1.1-0.1-2.2-0.4-3.2-0.9c0.1,0.1,0.3,0.2,0.4,0.2c-1.1-0.6-2.1-1.5-2.9-2.5c-0.4-0.7-0.9-1.3-1.3-2c-1.4-1.9-2.7-3.8-4-5.8
					c-1.9-2.8-3.7-5.6-5.7-8.4c-3-4.3-5.7-8.7-8.2-13.2c-2.9-5-5.6-10.1-7.9-15.4c-1.7-3.7-3.1-7.5-4.1-11.4c-0.8-2.9-1.3-6-1.3-9
					c0-2.1,0.4-4.1,1.2-5.9c0.4-2.1,1.2-3.9,2.4-5.7c3.7-5.1,8.9-8.2,15.7-9.4c0.9-0.1,1.8-0.1,2.6-0.1c1.6,0.2,3.2,0.5,4.7,1.1
					c4.2,1.7,6.5,4.2,8.5,7.7c0.6,0.8,0.9,1.7,0.9,2.7c0.1,0.7,0.1,1.5,0.1,2.2c0.2-0.7,0.3-1.3,0.5-2c-0.7,1.1-1.7,1.5-3,1.4
					C46.3,161.5,46.6,164.1,47.7,164.1z"/>
				<path opacity="0.1091" fill="#CC2829" enable-background="new    " d="M50.5,167.4c0.2-0.1,0.4-0.2,0.6-0.3
					c0.1-0.2,0.2-0.3,0.3-0.5c0.3-1.8,0.6-3.5,0.9-5.3c0.1-0.4,0.1-0.7,0.1-1.1c0.2-2.6-1-5.2-2.3-7.3c-2.1-3.4-5.3-5.8-9.2-6.9
					c-5.8-1.7-11.5-0.1-16.6,2.8c-3,1.7-5.4,3.9-7.3,6.7c-2.1,3.3-3.5,6.9-3.8,10.8c-0.6,6.7,0.6,13.3,2.7,19.7
					c3.3,10.1,8,19.8,13.6,28.8c2.1,3.4,4.4,6.6,6.6,9.9c2.2,3.3,4.3,6.6,6.6,9.9c1.1,1.6,2.2,3.3,3.7,4.6c1.2,1.1,2.7,1.8,4.3,2.2
					c5.2,1.5,10.6-0.9,14.9-3.6c3.6-2.3,6.8-5.3,9.7-8.4c3.2-3.4,6-7.1,8.5-10.9c0.7-1.1,1.4-2.2,2-3.3c0.3-0.6,0.6-1.1,0.7-1.8
					c0.1-0.9-3,0-2.6-0.1c-0.9,0.2-1.8,0.4-2.7,0.6c0.2,0.5,0.4,1.1,0.6,1.6c1.2-0.6,2.2-1.2,3.3-2.2c1.3-1.3,2.4-2.7,3.4-4.2
					c3.4-5.5,6.4-11.2,8.8-17.2c2.4-6.1,4.3-12.6,4.6-19.2c0.2-3.7-0.1-7.5-1.3-11.1c-1.2-3.9-3.4-7-6.2-10
					c-6.1-6.2-14.1-11.3-23.1-10.6c-6.6,0.5-12.6,4-17.2,8.6c-4.5,4.5-7.8,10-10.4,15.7c-0.9,1.9-1.6,3.7-2.3,5.6
					c-0.3,0.7-0.6,1.5-0.7,2.4c-0.1,1.1,1.1,0.7,1.7,0.5c0.9-0.4,2.6-1.1,2.9-2.1c0.2-0.5,0.5-1.1,0.7-1.5c0.5-1.1,1-2.2,1.5-3.4
					c1.1-2.3,2.1-4.6,3.5-6.8c1.2-1.9,2.5-3.7,3.9-5.4c3.7-4.3,8.6-8,14.3-8.8c6-0.9,11.5,1.6,16,5.4c1.8,1.4,3.4,3,4.9,4.7
					c0.6,0.9,1.2,1.8,1.8,2.7c1.7,2.8,2.7,5.8,3.1,9.1c0.6,5.9-0.5,11.8-2.3,17.4c-1.8,5.9-4.4,11.5-7.1,17
					c-1.1,2.1-2.1,4.2-3.3,6.2c-0.7,1.1-1.2,2.2-1.7,3.5c-0.2,0.9-0.7,1.7-1.4,2.3c0.2-0.2,0.3-0.4,0.5-0.5
					c-0.6,0.6-1.2,1.3-1.9,1.8c-0.4,0.3-0.5,0.7-0.2,1.1c0.4,0.5,1.1,0.2,1.7,0.1c0.4-0.1,0.7-0.2,1.1-0.3c-0.6-0.4-1.3-0.7-1.9-1.1
					c-0.8,0.4-1.2,1-1.8,1.6c-1.1,1.3-2.1,2.6-3.2,3.8c-3.1,3.8-6.9,7-10.8,9.9c0.1-0.1,0.3-0.2,0.4-0.3c-1,0.6-2,1.3-3,1.9
					c-0.4,0.2-0.9,0.4-1.3,0.6c-0.6,0.5-1.4,0.9-2.2,1.2c-1,0.4-2,0.6-3,0.6c-1.5,0.1-2.6-0.2-3.9-0.7c0.1,0.1,0.3,0.2,0.4,0.2
					c-1.1-0.6-2-1.5-2.8-2.5c-0.5-1-1.2-1.9-1.9-2.8c-1.5-2.2-3-4.4-4.5-6.7c-1.8-2.7-3.6-5.4-5.4-8c-0.2-0.3-0.4-0.6-0.6-1
					c-0.9-1.7-2-3.1-2.9-4.7c-2.7-4.7-5.2-9.4-7.5-14.3c-2.8-6.1-5.4-12.4-6.5-19c-0.6-3.9-0.7-7.8,0.3-11.7c1-3.7,3.1-6.9,6.2-9.2
					c1.5-1.3,3.3-2.2,5.2-2.7c1-0.3,1.9-0.5,2.9-0.7c1.7-0.4,3.3-0.4,4.9-0.1c1.3,0.3,2.6,0.7,3.8,1.3c2.2,1.1,4,2.8,5.4,4.7
					c1.3,1.7,2,3.5,2.7,5.5c-0.1-0.2-0.1-0.4-0.2-0.6c0.2,0.6,0.3,1.2,0.5,1.8c-0.1-0.2-0.1-0.4-0.2-0.6c0.2,1.1,0.3,2.3,0.7,3.4
					c0.3-2,0.6-3.9,1-5.9c-0.3,0.5-0.6,1-1,1.4c0.2-0.1,0.3-0.1,0.4-0.2c-0.7,0.3-1.4,0.4-2.1,0.3c-1.1,0.1,0.2,3.1,0.3,3.3
					c0.3,0.8,0.6,1.5,1.1,2.2C49.8,167.4,50.1,167.5,50.5,167.4z"/>
				<path opacity="0.1091" fill="#CC2829" enable-background="new    " d="M43.4,164.3c0.9-0.7,1.3-1.7,1.7-2.8
					c0.5-1.3,1.1-2.6,1.4-4c0.6-2.7-0.2-5.5-1.6-7.8c-1.7-2.7-4-5-6.9-6.4c-5-2.5-10.6-1.9-15.5,0.3c-2.5,1.1-4.9,2.5-6.9,4.2
					c-3,2.4-5.2,5.5-6.6,9.1C6.5,163,6.7,170,7.8,176.5c1.1,6.3,3.3,12.5,5.9,18.4c2.4,5.6,5.2,11,8.4,16.2
					c2.4,4.1,5.2,7.8,7.7,11.8c2.5,3.9,5,7.8,7.8,11.5c0.9,1.2,1.8,2.3,3,3.3c0.6,0.4,1.2,0.8,1.9,1.2c1.6,0.6,3.2,1,4.9,1.1
					c7.9,0.3,15-4.6,20.4-9.9c4.1-3.9,7.6-8.5,10.8-13.2c0.9-1.4,1.8-2.8,2.6-4.2c0.5-0.9,1.1-1.8,1.4-2.8c0.5-1.3-1.3-1.7-2.1-1.1
					c-0.2,0.1-0.4,0.3-0.6,0.4c-0.2,0.5-0.4,1-0.6,1.5c0.4-0.1,0.7-0.1,1-0.3c0.7-0.4,1.2-1.3,1.7-1.9c1.2-2,2.7-3.8,3.9-5.8
					c3.6-5.8,6.4-12.2,8.5-18.7c2.5-7.6,4-16,2.1-23.9c-0.6-2.5-1.5-4.7-2.8-6.9c-2-3.4-4.8-6-7.8-8.5c-6.2-5.1-14.3-8.6-22.4-6.9
					c-5.9,1.2-11.1,4.5-15.4,8.7c-4.9,4.9-8.5,10.9-11.3,17.2c-0.6,1.5-1.3,3-1.8,4.5c-0.2,0.6-0.5,1.3-0.5,2.1
					c-0.1,0.9,1.1,0.6,1.4,0.3c0.5-0.3,0.9-0.6,1.3-1c0.5-0.4,1-1,1.4-1.5c0.2-0.4,0.4-0.7,0.6-1.1c0.5-1,1.1-1.9,1.6-2.9
					c1.8-3.1,3.5-6.2,5.8-9.1c2.5-3.1,5.4-6,8.8-8c1.8-1.1,3.7-2,5.7-2.7c0.6-0.2,1.2-0.4,1.8-0.6c1.4-0.3,2.8-0.5,4.2-0.7
					c-0.2,0-0.3,0-0.4,0.1c2.2-0.1,4.4,0.1,6.5,0.6c1.7,0.4,3.2,0.9,4.7,1.7c3,1.5,5.8,3.3,8.4,5.6c1.4,1.1,2.7,2.3,3.7,3.8
					c4.7,6.4,4.6,15,3.1,22.4c-1.2,6.2-3.4,12.2-6.1,17.8c-1.4,3.1-3,6-5,8.8c-0.5,0.5-1,1.1-1.4,1.8c-0.2,0.7-0.3,1.5-0.5,2.3
					c-0.2,0.8-0.5,1.6-1,2.3c-0.1,0.1-0.3,0.6,0.1,0.6c0.9-0.1,1.9-0.2,2.8-0.3c-0.6-0.4-1.2-0.9-1.8-1.3c-1.4,2.8-2.9,5.5-4.7,8.2
					c-3.1,4.7-6.6,9.3-10.8,13.1c-9,9.1-17.2,10.3-24.6,3.9c-0.8-1-1.5-2.1-2.3-3.1c-1.2-1.7-2.3-3.4-3.5-5.1
					c-2.1-3.1-3.9-6.3-6.1-9.4C23.9,210,20.2,203,17,195.8c-2.9-6.6-5.5-13.7-6.3-20.9c-1-8.4,0.6-16.5,6.7-21.9
					c1.3-1.2,2.7-2.1,4.2-2.8c1.6-0.6,3.2-1.2,4.8-1.8c-0.2,0.1-0.3,0.1-0.4,0.2c0.9-0.2,1.8-0.4,2.6-0.6c-0.2,0-0.3,0.1-0.4,0.1
					c0.7-0.1,1.4-0.2,2.2-0.3c-0.2,0-0.3,0-0.4,0c1,0,2,0.1,2.9,0.2c0.9,0,1.7,0.2,2.5,0.5c-0.2-0.1-0.3-0.1-0.4-0.2
					c0.6,0.3,1.2,0.5,1.9,0.9c-0.1-0.1-0.3-0.2-0.4-0.2c2.7,1.5,5,3.5,6.1,6.3c0.6,1.5,0.7,3.3,1,5c0-0.2-0.1-0.3-0.1-0.5
					c-0.1,0.8-0.1,1.6-0.1,2.3c0.6-1.4,1.2-2.9,1.8-4.4c-1.1,0.7-1.3,0.6-2.7,0.4c-0.3-0.1-0.6,0.5-0.6,0.7c-0.3,1.1,0,2.3,0.2,3.4
					C42,162.6,42.2,165.3,43.4,164.3z"/>
				<path opacity="0.1091" fill="#CC2829" enable-background="new    " d="M43.2,169.5c0.4-0.8,0.7-1.7,1-2.5c0.4-1.1,0.7-2.2,1-3.3
					c0.4-1.5,0.8-2.8,0.8-4.3c0-2.7-1-5.1-2.5-7.3c-1.5-2.2-3.7-3.9-6-5.2c-5.2-2.8-11.4-1.5-16.3,1c-3.4,1.7-6.7,3.9-8.8,7.1
					c-1.8,2.6-3,5.5-3.6,8.6C7.7,168.7,8.1,173.9,9,179c1.1,6.6,3.6,13.1,6.3,19.2c2.2,5,4.7,9.8,7.4,14.5c0.8,1.4,1.7,2.8,2.6,4.2
					c0.4,0.7,0.9,1.4,1.4,2.1c1.2,1.4,2,3.1,3,4.6c2.3,3.6,4.6,7.1,7,10.6c1.1,1.5,2.2,3.4,3.7,4.6c1.2,1.1,2.7,1.8,4.3,2.1
					c1.5,0.3,2.8,0.4,4.3,0.4c1.4-0.1,2.7-0.4,4.1-0.8c5.8-1.7,10.6-5,14.8-9.2c3.3-3.3,6.3-7,9-10.9c0.9-1.3,1.8-2.7,2.7-4.2
					c0.5-0.9,1.1-1.8,1.5-2.7c0.4-1.1-1.1-1-1.5-0.9c-0.7,0.2-1.4,0.3-2.1,0.4c0.2,0.5,0.4,1.1,0.6,1.6c2.9-1.7,4.3-5,5.9-7.8
					c1.5-2.7,3.1-5.4,4.5-8.2c1.6-3.3,3-6.6,4.2-10c2.5-7,4.3-14.8,3.5-22.3c-0.6-5.6-2.8-10.6-6.8-14.6c-5.7-5.8-13.2-11-21.7-11
					c-7.4,0-14.1,4.1-19.1,9.3c-3.7,3.8-6.7,8.3-9.1,13c-1,2-2,4.1-2.8,6.1c-0.5,1.2-0.9,2.4-1.1,3.7c-0.3,1.7,2.5,0.1,2.8-0.1
					c1.4-0.7,2.8-1.5,4.2-2.3c0.8-0.4,1.4-0.9,1.9-1.6c0.3-0.4,0.7-0.8,1.1-1.2c0.4-0.5,0.7-1.2,1.1-1.7c0.6-1,1.3-2,1.9-2.9
					c2.7-4.2,6.2-7.7,10.2-10.8c-0.1,0.1-0.3,0.2-0.4,0.3c1.5-1,3-2,4.7-2.7c1.8-0.8,3.6-1.4,5.6-1.4c0.9-0.1,1.8-0.1,2.7,0.1
					c1,0.2,2,0.4,3,0.7c3.3,1.1,6,3,8.8,5c-0.1-0.1-0.2-0.2-0.3-0.3c1.5,1.3,3,2.8,4.4,4.3c-0.1-0.1-0.2-0.3-0.3-0.4
					c0.5,0.8,1.1,1.5,1.7,2.3c-0.1-0.1-0.2-0.3-0.2-0.4c0.4,0.9,0.9,1.7,1.3,2.5c-0.1-0.2-0.1-0.3-0.2-0.4c0.6,1.5,1.1,3,1.4,4.6
					c0.1,0.8,0.2,1.7,0.3,2.5c0.3,2.6,0.1,5.2-0.3,7.7c-0.7,5.8-2.7,11.5-5,16.9c-1.9,4.5-4.1,8.9-6.6,13.2
					c-0.9,1.5-1.4,3.1-2.1,4.6c-0.4,0.9-0.9,1.8-1.5,2.5c-0.3,0.2-0.1,0.7,0.1,1c0.3,0.4,0.5,0.4,1,0.3c0.3-0.1,0.6-0.2,0.9-0.2
					c-0.4-0.4-0.9-0.9-1.3-1.3c-1,0.6-1.4,1.7-2,2.6c-1.6,2.3-3.2,4.7-5,6.9c-2.5,2.9-5.2,5.8-8.2,8c-3.2,2.5-7.2,4-11.2,3.9
					c-1.5,0-3.2-0.3-4.6-0.9c-1.4-0.7-2.7-1.7-3.8-2.8c-0.5-0.4-1-1-1.3-1.5c-0.6-0.7-1-1.4-1.4-2.2c-0.9-1.4-1.9-2.8-2.8-4.2
					c-2.8-4.2-5.5-8.4-8-12.7c0.1,0.2,0.2,0.5,0.3,0.7c-0.1-0.3-0.2-0.5-0.3-0.8c0.1,0.2,0.2,0.5,0.3,0.7c-0.3-0.9-0.6-1.8-1.1-2.7
					c-0.7-1.4-1.4-2.8-2.1-4.2c-1.9-4.2-3.7-8.4-5.3-12.7c-1.8-5.1-3.3-10.3-3.6-15.7c-0.2-2.1-0.2-4.1,0.1-6.1
					c0.1-1.1,0.3-2.1,0.5-3.2c0.4-1.4,0.8-2.8,1.3-4.1c-0.1,0.2-0.1,0.3-0.2,0.4c0.6-1.2,1.3-2.3,1.9-3.5c0.4-0.4,0.8-0.9,1.2-1.3
					c0.9-1.1,1.9-1.9,3-2.6c0.9-0.4,1.8-0.9,2.6-1.3c1.5-0.8,3.3-1.4,5.1-1.5c0.8-0.1,1.5,0,2.3,0.1c1,0.2,2,0.5,2.8,1
					c-0.1-0.1-0.3-0.2-0.4-0.3c0.5,0.4,1.1,0.7,1.7,1.1c-0.1-0.1-0.3-0.2-0.4-0.3c0.5,0.4,1,0.9,1.5,1.2c-0.1-0.1-0.2-0.2-0.4-0.3
					c1.4,1.5,2.7,3.3,3.2,5.3c0.2,0.8,0.3,1.7,0.4,2.5c0,0.4,0.1,0.8,0.2,1.2c0.2,0.7,0.3,1.5,0.3,2.2c0.7-1.9,1.4-3.7,2.1-5.6
					c-0.2,0.2-0.4,0.3-0.6,0.4c0.2-0.1,0.3-0.1,0.4-0.1c-0.7,0.2-1.4,0.1-2.2-0.1c-0.4-0.1-0.6,0.7-0.6,0.9c0,0.4-0.1,0.9-0.1,1.3
					c0,1,0.1,1.9,0.2,2.9c0.1,0.9,0.1,1.9,0.5,2.6C42.3,169.4,42.9,170.1,43.2,169.5z"/>
				<path opacity="0.1091" fill="#CC2829" enable-background="new    " d="M44.7,166.2c1.1-0.3,1.9-0.6,2.7-1.5
					c0.5-0.5,1-1.2,1.3-1.8c0.4-0.8,0.5-1.5,0.5-2.5c-0.1-0.6-0.1-1.3-0.3-1.9c-0.2-1.1-0.6-2-1.2-2.8c-2.2-3.4-5.4-6.4-9.4-7.6
					c-3.4-1-7-1.2-10.4-0.1c-4.4,1.3-8.8,3.7-11.9,7.1c-0.7,0.9-1.4,1.7-2.1,2.6c-0.9,1.3-1.7,2.8-2.1,4.4
					c-1.4,3.6-1.9,7.4-1.8,11.3c0.1,4.4,0.9,8.8,2,13c1.8,6.3,4.2,12.3,6.9,18.2c2.2,4.6,4.6,9.1,7.2,13.5c1.1,1.8,2.2,3.5,3.4,5.1
					c0.5,0.7,1,1.5,1.4,2.3c1.2,1.9,2.4,3.8,3.6,5.7c1.1,1.7,2.2,3.4,3.4,5.1c1.3,1.9,2.6,3.9,4.2,5.5c3.3,3.5,8.2,3.8,12.6,2.7
					c6.1-1.6,11.5-5.4,15.9-9.7c3.8-3.7,7.1-7.9,10.1-12.4c1-1.5,2-3,2.9-4.6c0.2-0.3,0.3-0.5,0.2-0.9c-0.2-0.3-0.4-0.5-0.7-0.4
					c-0.9,0.2-1.8,0.3-2.7,0.4c0,0.7,0,1.4,0,2.1c1-0.6,1.9-1.4,2.7-2.3c0.8-0.9,1.5-1.8,2.2-2.7c0.5-1.1,1-2.1,1.5-3.2
					c0.8-1.3,1.5-2.6,2.3-3.8c0.8-1.4,1.5-2.9,2.3-4.4c1.6-3.3,3-6.6,4.3-10c4.2-11.7,6.8-26.5-1.9-36.9c-3.2-3.8-7.4-7.2-11.8-9.5
					c-3.7-2-7.8-3.3-12-3.3c-7.8,0-14.7,4.3-19.8,9.9c-4.2,4.6-7.5,10.1-10,15.7c-0.8,1.8-1.6,3.7-2.2,5.6c-0.3,0.8-0.6,1.7-0.7,2.5
					c-0.2,1.2,1.2,0.8,1.9,0.6c1-0.3,1.9-0.7,2.8-1.1c0.6-0.2,1-0.5,1.3-1c0-0.4,0.2-0.7,0.4-1.1c0.4-1.1,0.9-2.3,1.3-3.4
					c1.3-3.5,2.8-6.8,4.6-10.1c2.7-4.7,6.3-9.2,11-12c2.1-1.2,4.5-2.1,6.8-2.5c4.3-0.7,8.2,0.2,11.9,2c3.8,1.8,7.5,4.5,10.3,7.6
					c2.1,2.3,3.8,4.7,5,7.7c1.5,3.5,1.8,7.1,0.8,10.9c0.5,3.7,0.3,7.4-0.7,10.9c-0.8,3.2-1.9,6.3-3.1,9.4c-2,5.1-4.5,10.1-7.3,14.9
					c-0.6,0.7-1,1.4-1.3,2.2c-0.2,0.5-0.3,0.9-0.4,1.4c-0.2,1.1-0.6,2-1.4,2.8c-0.5,0.7-1,1.3-1.6,1.8c0.3-0.3,0.6-0.5,1-0.8
					c-0.2,0.1-0.4,0.3-0.6,0.4c-0.4,0.3-1,0.7-0.9,1.2c0.1,0.3,0.5,1,0.9,0.9c0.2-0.1,0.4-0.1,0.6-0.1c0-0.6-0.1-1.2-0.1-1.7
					c-0.6,0.3-1,0.6-1.3,1.2c-0.3,0.4-0.5,0.8-0.9,1.2c-1.2,1.6-2.3,3.1-3.5,4.7c0.1-0.1,0.2-0.3,0.3-0.4c-0.5,0.6-1,1.3-1.5,2
					c0.1-0.1,0.2-0.3,0.3-0.4c-0.6,0.6-1.1,1.3-1.7,1.9c0.1-0.1,0.2-0.3,0.3-0.4c-0.6,0.6-1.2,1.3-1.9,2c0.1-0.1,0.2-0.2,0.4-0.4
					c-1.2,1.2-2.5,2.5-3.8,3.6c-1.3,1.1-2.7,2.1-4.1,3c0.2-0.1,0.3-0.2,0.5-0.3c-1.6,0.9-3.2,1.7-4.9,2.3c0.2-0.1,0.4-0.1,0.5-0.1
					c-1.1,0.3-2.3,0.5-3.5,0.6c-0.9,0.1-1.8,0.2-2.7,0.3c-1.9,0.1-3.6-0.5-5.5-0.8c0.2,0.1,0.3,0.1,0.5,0.1c-0.5-0.2-1-0.4-1.5-0.6
					c-0.5-0.3-0.9-0.6-1.4-1c-1.2-0.9-2.2-2.1-2.9-3.4c-0.6-1.1-1.3-2.1-2-3.1c-1-1.4-1.9-2.8-2.8-4.2c-1.5-2.2-3-4.5-4.4-6.8
					c-0.6-1-1.4-2-2-3.1c-0.1-0.2-0.1-0.3-0.2-0.4c-0.2-0.5-0.4-1-0.7-1.4c-1.2-2.1-2.3-4.3-3.4-6.4c-3.6-7.1-6.7-14.3-9.3-21.8
					c0.1,0.2,0.1,0.3,0.2,0.4c-0.3-1-0.6-2-1-3c0.1,0.2,0.1,0.3,0.1,0.4c-1.1-4.1-2.2-8-2.3-12.3c-0.1-1.8,0-3.5,0.3-5.3
					c0.1-0.9,0.3-1.8,0.6-2.6c2.2-7.7,8.8-11.9,19.8-12.6c1.4,0.3,2.8,0.6,4.1,1.3c1.1,0.6,2.2,1.4,3.1,2.2c1.1,1.3,2.2,2.6,3.3,3.8
					c0.6,0.6,0.9,1.3,1,2.1c0.2,1,0.3,2,0.3,3c0.2-0.6,0.4-1.2,0.5-1.8c-0.6,1.5-1.7,2.2-3.4,2.1c-0.9,0-0.7,1.2-0.6,1.7
					C43.7,165.3,43.9,166.4,44.7,166.2z"/>
				<path opacity="0.1091" fill="#CC2829" enable-background="new    " d="M50.3,165.4c0.4-0.4,0.6-0.7,0.9-1.2
					c0.1-0.7,0.2-1.5,0.3-2.2c0.1-1.2,0.2-2.3,0.3-3.5c0.1-0.7,0.1-1.4,0.1-2.2c-0.4-2.7-1.4-5.2-3-7.3c-2-2.7-4.9-5-8.2-5.9
					c-3.6-1.1-7.5-1-11.1,0.1c-3.7,1.2-7.4,2.8-10.2,5.5c-2.5,2.3-4.4,5-5.7,8.1c-1.3,3.1-1.8,6.7-1.9,10.1c-0.1,3.5,0.3,6.8,1,10.2
					c1.3,6.8,3.9,13.3,6.9,19.6c2.3,5,4.9,9.8,7.7,14.5c1.3,2.1,2.6,4.4,4.2,6.3c1.8,2.2,3.3,4.7,4.8,7.1c2.1,3.2,4.3,6.4,6.6,9.5
					c0.9,1.2,1.4,2,2.6,3c1.4,1.1,2.7,1.7,4.4,2c5.8,1.3,11.6-1.4,16.2-4.7c3.3-2.3,6.2-5.2,8.8-8.2c2.9-3.3,5.5-6.7,7.9-10.4
					c0.7-1.2,1.5-2.3,2.2-3.6c0.4-0.7,0.9-1.4,1-2.2c-0.1-0.1-0.2-0.3-0.3-0.4c-0.4-0.2-0.8-0.3-1.3-0.2c-1.3,0.1-2.9,0.2-4.2,0.5
					c-0.4,0.1-0.7,0.2-1.1,0.3c1,0.4,1.9,0.9,2.9,1.2c3.4-1.7,5.3-5.4,7.2-8.4c4.1-6.6,7.4-13.8,9.5-21.2c1.8-6,3-12.5,2.1-18.8
					c-0.4-3.3-1.4-6.5-3-9.4c-1.9-3.4-4.7-6.2-7.8-8.6c-1.9-1.5-3.9-3-6.1-4.1c-2.2-1.1-4.4-2.1-6.8-2.6c-1.9-0.4-3.7-0.6-5.7-0.6
					c-4.3,0.1-8.3,1.3-12,3.5c-3.2,1.9-6,4.3-8.5,7c-4.2,4.6-7.2,9.9-9.7,15.5c-0.7,1.5-1.3,3-1.9,4.6c-0.2,0.6-0.5,1.4-0.5,2.1
					c-0.1,0.6,0.7,0.9,1.1,0.7c0.4-0.1,0.7-0.3,1-0.5c0.4-0.3,0.8-0.5,1.1-0.9c0.4-1.6,1.2-3.2,1.9-4.7c0.5-1,1-2,1.5-3
					c1.9-4.3,4.7-7.9,8.5-10.7c2-2.9,4.5-5.1,7.6-6.6c-0.2,0.1-0.3,0.1-0.5,0.2c1.7-0.7,3.5-1.3,5.3-1.7c1.2-0.2,2.3-0.3,3.5-0.2
					c2.3,0.1,4.4,0.6,6.5,1.4c2.6,1,4.9,2.6,7,4.4c0.7,0.6,1.5,1.3,2.2,1.9c1.6,1.3,2.9,2.9,3.9,4.7c1.2,1.8,2.2,3.7,2.9,5.8
					c0.6,2.1,0.9,4.4,1,6.6c0.1,5.4-1.1,10.8-2.8,16c-1.7,5.3-3.9,10.3-6.4,15.3c-0.3,0.7-0.7,1.3-1,2c-0.6,1.2-1.3,2.5-2,3.7
					c-0.6,1.3-1.1,2.6-1.8,3.8c-0.8,1.4-1.8,2.8-2.6,4.1c-0.7,1.1-1.4,2.3-2.2,3.5c-1.4,2.2-2.9,4.2-4.4,6.3
					c0.1-0.1,0.2-0.3,0.3-0.4c-3.1,4.1-6.3,8.1-10.7,11c-3.3,2.2-7.9,4-11.8,1.9c-2.3-1.2-3.7-3.5-5.2-5.5
					c-3.6-5-6.7-10.3-10.3-15.2c-2-2.7-3.6-5.6-5.3-8.5c-3-5.4-5.8-10.9-8.2-16.6c-2.7-6.7-5-13.9-4.6-21.2
					c0.2-3.8,0.8-7.5,2.7-10.9c1.1-1.8,2.4-3.4,3.9-4.8c1.6-1.3,3.4-2.3,5.3-3.2c-0.2,0.1-0.3,0.1-0.5,0.2c2.5-0.6,4.9-1.2,7.4-1.2
					c0.8-0.1,1.5-0.1,2.3,0.2c0.6,0.1,1.3,0.3,1.9,0.6c1.3,0.6,2.7,1.1,3.9,2c1.1,0.8,2,1.8,2.9,2.8c1.4,1.8,2.3,3.7,3.1,5.9
					c0.3,0.8,0.7,1.6,1,2.5c0.1,0.5,0.2,1,0.6,1.4c0.2,0.3,0.4,0.5,0.6,0.9c0.3-2.3,0.5-4.7,0.7-7c-0.4,0.4-0.8,0.7-1.2,1.1
					c0.1-0.1,0.3-0.2,0.4-0.2c-0.8,0.2-1.6,0.3-2.4,0.3c-1.2,0,0.6,3.8,0.6,3.9c0.4,1,0.8,1.9,1.3,2.7
					C49.6,165.3,49.9,165.5,50.3,165.4z"/>
				<path opacity="0.1091" fill="#CC2829" enable-background="new    " d="M43.4,168c1.5-1.4,2.5-3.6,3.1-5.6c0.3-1,0.4-1.9,0.3-2.9
					c-0.1-1-0.4-2.1-0.7-3c-0.6-1.5-1.7-2.9-2.8-4.2c-1.5-1.7-3.6-3.1-5.7-3.9c-3.7-1.4-7.7-1.6-11.6-0.4c-1.5,0.5-3,1.1-4.5,1.9
					c-1.5,0.7-3,1.6-4.4,2.7c-2.6,2-4.6,4.4-6.1,7.3c-1.8,3.4-2.4,7.1-2.6,10.9c-0.2,3.8,0.2,7.6,1,11.3
					c2.3,10.7,6.9,20.8,12.2,30.4c1.7,2.9,3.3,6,5.3,8.7c0.2,0.3,0.4,0.5,0.7,0.8c0.5,0.7,1,1.5,1.4,2.3c2.1,3.4,4.2,6.7,6.4,9.9
					c1.3,1.9,2.5,3.9,4,5.6c1.1,1.2,2.2,2.3,3.7,2.9c1.5,0.6,2.7,1,4.4,1.1c2.4,0.1,4.9-0.4,7.1-1.2c5.2-1.8,9.8-5,13.7-8.8
					c3.4-3.3,6.4-7,9.1-10.9c1-1.4,1.9-2.8,2.7-4.2c0.5-0.9,1.1-1.8,1.5-2.7c0.1-0.3-0.1-0.6-0.3-0.8c-0.4-0.2-0.8-0.2-1.2,0
					c-0.6,0.2-1.2,0.3-1.9,0.4c0.1,0.6,0.1,1.2,0.1,1.9c3.5-2.1,5.1-6.2,7-9.6c3.7-6.7,7-13.5,9.2-20.8c2.4-8.1,3.7-17.3,0.5-25.4
					c-0.9-2.3-2.1-4.5-3.8-6.4c-1.5-1.9-3.4-3.5-5.2-5.1c-1.9-1.6-4.3-3.1-6.6-4.3c-1-0.5-2.1-1.1-3.1-1.4c-1-0.3-1.9-0.7-2.9-1
					c-1.4-0.3-2.7-0.5-4.1-0.6c-2.3-0.2-4.5,0.2-6.8,0.6c-1,0.2-2.1,0.6-3,1c-2.2,0.9-4.2,2.1-6,3.5c-2.5,1.8-4.5,3.8-6.6,6.1
					c-3.3,3.7-5.9,8-8,12.5c-1,2.1-2,4.2-2.8,6.4c-0.4,1-0.7,2-0.8,3c-0.1,1,3.3-0.5,3.6-0.6c1-0.4,2-0.9,2.9-1.3
					c0.7-0.3,1.4-0.7,1.9-1.3c0.1-0.3,0.3-0.5,0.4-0.7c0.6-0.9,1-1.9,1.4-2.8c0.7-1.3,1.3-2.8,2-4.1c1-1.9,2.2-3.8,3.4-5.6
					c-0.1,0.1-0.2,0.3-0.3,0.4c2-2.8,4.1-5.5,6.7-7.8c6.8-5.8,14.6-6.6,23.7-0.6c3.9,2.6,7.6,6,9.7,10.2c2,4.1,2.6,8.5,2.3,13
					c-0.2,4.2-1.1,8.3-2.2,12.3c-1.7,5.9-4.2,11.5-7,16.9c-0.9,1.7-1.9,3.4-2.8,5c-0.7,1.2-0.8,1.6-1.4,3.1
					c-0.6,1.7-1.5,3.1-2.7,4.5c0.3-0.3,0.6-0.5,0.9-0.7c-0.2,0.1-0.3,0.2-0.5,0.3c-0.4,0.2-0.8,0.6-0.7,1.1c0.1,0.3,0.5,0.9,0.8,0.9
					c0.4-0.1,0.9-0.2,1.3-0.3c-0.2-0.5-0.4-1.1-0.6-1.6c-0.7,0.3-1.3,0.8-1.6,1.5c0.1-0.2,0.2-0.3,0.3-0.4c-0.3,0.4-0.5,0.7-0.7,1.1
					c0.1-0.1,0.2-0.3,0.3-0.4c-0.3,0.4-0.6,0.9-0.9,1.3c0.1-0.1,0.2-0.3,0.3-0.4c-2.3,3.1-4.5,6.2-7.2,9c-1.7,1.8-3.5,3.4-5.4,4.9
					c-0.7,0.5-1.4,1-2.1,1.5c-1.4,0.9-2.9,1.6-4.5,2.2c0.2-0.1,0.4-0.1,0.5-0.1c-2.2,0.5-4.3,1-6.6,0.9c-1.8-0.1-3.6-0.6-5.3-1.2
					c-1.7-0.6-3-2-4.2-3.3c-0.8-0.9-1.4-1.9-2-3c-0.5-0.8-1.1-1.6-1.7-2.5c-2.1-3.3-4.3-6.4-6.3-9.8c-0.7-1.1-1.4-2.3-2.1-3.4
					c-0.2-0.4-0.5-0.8-0.7-1.2c0.1,0.3,0.2,0.5,0.3,0.7c-0.3-0.7-0.4-1.5-0.8-2.2c-0.5-1-1.1-2-1.5-3c-1.5-3-2.8-6.1-4.1-9.2
					c-1.4-3.5-2.7-7-3.8-10.6c-0.6-2-1.2-4.1-1.6-6.2c-0.5-2.6-0.9-5.1-1.2-7.7c0,0.2,0,0.3,0.1,0.5c-0.2-4.5-0.4-9.2,1.4-13.5
					c0.9-2.1,2.6-4.2,4.4-5.6c1-0.7,2.1-1.4,3.2-2c1.1-0.7,2.3-1.2,3.5-1.6c2.9-0.9,6.1-1,8.9,0.5c1.4,0.8,3,1.9,4,3.1
					c1.8,2.1,3.4,5.3,2.4,8.1c0.3-0.5,0.5-1,0.8-1.5c-0.7,0.1-1.3,0.2-2,0.3c-1.2-0.1-0.6,2.9-0.6,3.3c0.1,0.5,0.1,1.2,0.4,1.6
					C42.7,168.1,43.1,168.3,43.4,168z"/>
				<path opacity="0.1091" fill="#CC2829" enable-background="new    " d="M48.3,163.7c0.6-0.2,0.9-0.5,1.1-1.1
					c0.1-0.5,0.2-1,0.3-1.4c0.3-1.8,0.6-3.6,0.8-5.4c0.1-2.9-1.2-6-3-8.3c-3.6-4.9-9.6-7.5-15.7-6.6c-1.9,0.2-3.7,0.6-5.4,1.3
					c-1.7,0.6-3.2,1.3-4.6,2.2c-3.5,2-6.3,4.7-8.4,8.2c-3.8,6.6-3.9,14.6-2.6,21.9c2.1,11.2,7.1,21.9,12.7,31.8
					c1.9,3.3,3.8,6.7,6.1,9.8c0.7,1,1.5,2.1,2.2,3.1c2.4,3.6,4.6,7.2,7,10.8c1.1,1.6,2.2,3.3,3.5,4.8c0.6,0.6,1.2,1.2,1.9,1.8
					c1.2,1,2.6,1.7,4.2,1.9c2.9,0.8,6,0.5,8.8-0.4c1.9-0.6,3.8-1.4,5.5-2.3c2.1-1.2,4.2-3,5.9-4.5c4.3-3.9,8-8.6,11.2-13.4
					c1.8-2.7,3.6-5.4,5-8.3c0.7-1.4-2-1.2-2.5-1.2c-0.5,0.1-1.1,0.1-1.6,0.1c0.3,0.5,0.5,1.1,0.9,1.6c1.4-0.7,2.4-1.9,3.4-3.1
					c1.3-1.7,2.3-3.5,3.4-5.3c3.8-6.2,6.9-13,9-19.9c2.1-6.8,3.4-14.2,2.2-21.3c-0.4-2.4-1.1-4.8-2.2-7c-1.9-3.9-5.1-7.1-8.4-9.8
					c-4.3-3.4-9.2-6.3-14.7-7.2c-3.8-0.6-7.7-0.2-11.3,1c-4.1,1.4-7.6,3.8-10.8,6.6c-4.6,4.1-8.2,9.3-10.9,14.7
					c-1.1,2.1-2,4.3-2.9,6.5c-0.5,1.3-1.1,2.7-1.3,4c-0.1,0.5,0.2,1.2,0.7,1.2c0.4,0.1,1.8-0.6,1.8-1.1c0.2-0.9,0.5-1.8,0.9-2.7
					c0.7-1.9,1.7-3.8,2.6-5.7c1.3-2.7,2.8-5.2,4.6-7.6c3.3-4.4,7-7.6,11.9-10.4c-0.2,0.1-0.3,0.2-0.4,0.2c0.9-0.4,1.9-0.7,2.8-1.1
					c-0.2,0.1-0.3,0.1-0.5,0.2c1-0.3,2-0.5,2.9-0.9c-0.2,0-0.3,0.1-0.5,0.1c2.4-0.3,4.9-0.6,7.2-0.1c1.8,0.4,3.5,0.9,5.2,1.7
					c1.8,0.9,3.5,1.8,5.2,2.9c0.8,0.6,1.6,1.2,2.5,1.8c1.8,1.4,3.4,2.9,4.7,4.7c-0.1-0.1-0.2-0.2-0.3-0.3c0.6,0.7,1.2,1.4,1.8,2.1
					c-0.1-0.1-0.2-0.3-0.3-0.4c0.5,0.8,1,1.5,1.4,2.3c-0.1-0.2-0.2-0.3-0.2-0.4c0.4,0.8,0.8,1.6,1.2,2.5c-0.1-0.2-0.1-0.3-0.2-0.4
					c0.3,0.9,0.6,1.7,0.9,2.6c-0.1-0.2-0.1-0.3-0.1-0.4c0.2,0.9,0.5,1.8,0.7,2.7c-0.1-0.2-0.1-0.3-0.1-0.4c0.2,0.9,0.3,1.9,0.4,2.8
					c0-0.2-0.1-0.3-0.1-0.4c0.2,2.5,0.2,5-0.1,7.5c-0.3,2.2-0.7,4.3-1.2,6.4c-1.2,4.7-2.8,9.3-4.7,13.7c-0.8,1.9-1.7,3.7-2.6,5.5
					c-0.5,1-1,2-1.5,3c-0.3,0.6-0.6,1.2-1,1.8c-0.2,0.6-0.4,1.3-0.6,2c-0.2,0.7-0.5,1.3-1,1.9c-0.5,0.8-1,1.7-1.6,2.3
					c-0.3,0.3-0.3,1-0.1,1.3c0.3,0.4,1,0.4,1.4,0.3c0.9-0.2,1.7-0.3,2.6-0.5c-1.1-0.4-2.1-0.9-3.2-1.3c-0.4,0.2-0.7,0.6-0.9,1.1
					c-0.2,0.5-0.5,1-0.7,1.5c-0.7,1.3-1.3,2.6-2.1,3.8c-2.5,4.4-5.2,8.6-8.4,12.5c-1.6,2-3.3,3.7-5.2,5.4
					c-5.2,4.1-10.6,5.2-16.2,3.2c-2.5-1.2-3.9-3.4-5.4-5.5c-2.8-3.8-5.2-7.8-7.8-11.8c-0.9-1.4-1.9-2.7-2.8-4
					c-2.3-3.3-4.4-6.8-6.3-10.2c-3.2-5.8-6.1-11.7-8.4-17.8c-2.1-5.4-3.9-11.4-4.2-17.3c-0.1-3.5,0.4-6.8,1.4-10.1
					c1.9-5.4,5.5-9.3,10.9-11.8c-0.2,0.1-0.3,0.1-0.5,0.2c3.7-1,7.7-2.1,11.5-0.7c1.3,0.5,2.7,0.9,3.9,1.7c1.1,0.7,2.1,1.6,3,2.6
					c1.5,1.6,2.5,3.5,3.4,5.5c0.3,0.9,0.7,1.7,1,2.5c0.1,0.6,0.2,1.1,0.6,1.5c0.3,0.4,0.4,0.7,0.6,1.2c0.4-2,0.8-4.1,1.2-6.1
					c-0.4,0.4-0.8,0.8-1.2,1.2c0.2-0.1,0.3-0.1,0.4-0.2c-0.9,0.2-1.7,0.3-2.6,0.2c-1.2-0.1,0.3,3.6,0.3,3.7
					C46.5,161.2,47.1,164,48.3,163.7z"/>
				<path opacity="0.1091" fill="#CC2829" enable-background="new    " d="M41.8,164.6c0.9-0.8,1.4-1.5,2-2.6
					c0.5-1.1,1.1-2.1,1.4-3.3c0.8-2.6,0.2-5.6-1.3-7.8c-1.8-2.7-4.1-4.9-7-6.3c-5-2.4-10.6-1.7-15.5,0.4c-4.1,1.8-7.9,4.5-10.6,8.1
					c-3.5,4.8-4.6,10.8-4.6,16.7c0.1,7.1,2,14.2,4.5,20.9c2,5.3,4.4,10.4,7,15.5c2,3.9,4.2,7.7,6.6,11.3c0.6,1,1.3,1.9,2,2.9
					c2.2,3.4,4.4,6.8,6.6,10.1c1.1,1.7,2.3,3.4,3.5,5c1.3,1.9,2.7,3.5,4.8,4.6c0.8,0.3,1.6,0.5,2.4,0.9c1.8,0.4,3.5,0.6,5.3,0.5
					c1.1-0.2,2.1-0.4,3.2-0.7c5.6-1.7,10.3-5.1,14.5-9.1c4.1-3.9,7.6-8.5,10.8-13.2c1.5-2.2,3.1-4.6,4.2-7.1c0.4-1-0.7-1.5-1.5-1.2
					c-0.4,0.2-0.7,0.3-1.1,0.4c-0.2,0.5-0.4,1.1-0.5,1.7c0.3-0.1,0.6-0.2,1-0.4c0.7-0.4,1.2-1.2,1.5-1.9c0.8-1.4,1.7-2.8,2.7-4.1
					c0.9-1.1,1.6-2.3,2.3-3.6c3.1-5.3,5.7-11.1,7.6-17.1c2.5-7.6,4.2-16,2.3-23.9c-0.9-3.5-2.3-6.7-4.6-9.4c-1.8-2.2-3.9-4.4-6.2-6
					c-2.1-1.5-4.4-3.1-6.7-4.3c-4.1-2.1-8.6-3.1-13.2-2.8c-5.1,0.4-9.8,2.6-13.8,5.7c-5.9,4.5-10.4,10.8-13.6,17.4
					c-1,2-2,4.1-2.8,6.2c-0.5,1.2-1.1,2.5-1.2,3.7c-0.1,1,1.1,0.6,1.5,0.3c0.6-0.3,1.2-0.7,1.7-1.2c0.7-0.5,1.3-1.1,1.9-1.8
					c0.1-0.2,0.2-0.5,0.3-0.7c-0.1,0.2-0.2,0.4-0.2,0.5c0.5-1,1.2-2,1.8-3c1.3-2.3,2.6-4.7,4.1-6.9c1.7-2.5,3.6-4.7,5.8-6.8
					c1.2-1.2,2.5-2.3,3.8-3.4c1.7-1.3,3.6-2.4,5.5-3.4c-0.1,0.1-0.3,0.2-0.4,0.2c3.3-1.5,6.7-2.6,10.4-2.3c3.7,0.2,7.2,1.6,10.3,3.4
					c2,1.4,3.9,2.8,5.9,4.2c2.1,2.8,4.3,5.6,6.4,8.4c0.6,1.6,1.1,3.4,1.4,5.1c0.6,4,0.3,8.2-0.4,12.1c-0.4,1.9-0.8,3.7-1.3,5.5
					c-0.7,2.6-1.7,5.1-2.7,7.7c-1.5,3.8-3.2,7.6-5.2,11.2c-0.7,1.2-1.4,2.5-2.2,3.6c-0.4,0.5-0.9,1.1-1.3,1.6
					c-0.3,0.3-0.5,0.5-0.7,0.9c-0.3,0.6-0.3,1.4-0.5,2.1c-0.3,0.8-0.5,1.4-0.9,2.2c-0.1,0.2-0.5,1-0.1,1c0.9-0.1,1.8-0.3,2.7-0.4
					c-0.5-0.5-0.9-1-1.4-1.5c-1.6,3-3.2,5.9-5.1,8.7c-3.6,5.4-7.9,10.8-13.1,14.8c-4.2,3.1-9.5,5.9-15,4.9c-2.3-0.4-4.5-1.4-6.3-2.9
					c-1-0.9-1.8-2-2.5-3.1c-2.9-4.3-5.7-8.6-8.5-13c-1.1-1.7-2.3-3.4-3.4-5.2c-1-1.8-2.1-3.5-3.1-5.3c-1.4-2.7-2.9-5.4-4.2-8.3
					c-4.2-9.1-8-18.9-8.1-29c0-3.7,0.5-7.5,2-10.9c0.7-1.4,1.4-2.8,2.3-4.2c1.1-1.3,2.2-2.6,3.5-3.8c-0.1,0.1-0.2,0.2-0.3,0.3
					c4.4-3.2,9.8-6.1,15.4-5.2c3.1,0.5,6.2,2.6,7.9,5.6c1.2,2.1,1.5,5.2,0.7,7.5c0.4-0.8,0.9-1.7,1.3-2.5c-0.7,0.1-1.5,0.2-2.2,0.3
					c-1.2-0.2-0.9,3.1-0.8,3.5c0.1,0.5,0,1.3,0.4,1.8C41,164.7,41.4,164.9,41.8,164.6z"/>
			</g>
		</g>
	</g>
	<g>
		<g>
			<rect x="36.3" y="178.6" fill="#FFFFFF" width="37.8" height="9.6"/>
			<g>
				<g>
					<g>
						<g>
							<path fill="#FFFFFF" d="M75.4,188.1c0,0.2,0.2,0.1,0.3,0.1C75.6,188,75.4,188.1,75.4,188.1z"/>
							<polygon fill="#FFFFFF" points="74.9,185.8 75,185.8 74.8,185.5 							"/>
							<path fill="#FFFFFF" d="M74.9,183.6c-0.4,0.2,0.1,0.8-0.1,1.2l-0.1,0.1l0.3,0.2C75.1,184.6,74.8,184,74.9,183.6z"/>
							<path fill="#FFFFFF" d="M75.7,182.5c-0.2,0.1-0.1-0.3-0.1,0.3c0,0,0-0.1,0.1-0.1C75.7,182.7,75.7,182.6,75.7,182.5z"/>
							<path fill="#FFFFFF" d="M75.7,182.7C75.7,182.9,75.9,182.6,75.7,182.7L75.7,182.7z"/>
							<path fill="#FFFFFF" d="M75.7,181.7l0.1,0.3c0.1-0.1,0.1-0.3,0.2-0.2C75.9,181.4,75.8,181.5,75.7,181.7z"/>
							<path fill="#FFFFFF" d="M75.4,181.3l0.1,0.2C75.5,181.5,75.5,181.5,75.4,181.3z"/>
							<path fill="#FFFFFF" d="M75.6,181.8l-0.1-0.3c-0.1,0.1-0.2,0.1,0.1,0.2C75.4,181.7,75.5,181.7,75.6,181.8z"/>
							<path fill="#FFFFFF" d="M75.5,182c-0.1,0.2-0.2,0.4-0.3,0.1C75.3,182.7,75.5,182.6,75.5,182z"/>
							<path fill="#FFFFFF" d="M74.5,183.5l-0.1,0.2l0.1,0.2C74.5,183.9,74.7,183.5,74.5,183.5z"/>
							<path fill="#FFFFFF" d="M75.9,179.1c-0.1,0-0.2,0.3-0.3,0.3l0.1,0.4C75.7,179.5,75.7,179.2,75.9,179.1z"/>
							<path fill="#FFFFFF" d="M75.5,179.4l-0.2-0.5C75.4,179.4,75.5,179.5,75.5,179.4z"/>
							<polygon fill="#FFFFFF" points="74.9,181.3 75.3,181.9 74.9,181.2 							"/>
							<polygon fill="#FFFFFF" points="75.7,176.8 76,176.8 76.1,176.9 76,176.8 75.4,176.9 							"/>
							<path fill="#FFFFFF" d="M74.2,176.9c0.4-0.2-0.2-0.3,0.1-0.4c-0.5,0.1-0.9,0.2-1.3,0.3C73.4,176.7,73.8,176.8,74.2,176.9z"/>
							<path fill="#FFFFFF" d="M72.5,177c0.2-0.1,0.4-0.1,0.6-0.2C72.9,176.8,72.7,176.9,72.5,177z"/>
							<path fill="#FFFFFF" d="M75.4,178c0.1-0.1,0.2-0.3,0.2-0.6l-0.2,0.4C75.4,177.8,75.4,177.9,75.4,178z"/>
							<path fill="#FFFFFF" d="M75.4,177.8L75.4,177.8c0-0.3,0-0.4,0-0.5C75.5,177.3,75.5,177.5,75.4,177.8z"/>
							<path fill="#FFFFFF" d="M75.4,178L75.4,178L75.4,178z"/>
							<path fill="#FFFFFF" d="M75.2,180.3c-0.1-0.3-0.3-0.8-0.5-0.2C74.9,180.3,75,180,75.2,180.3z"/>
							<path fill="#FFFFFF" d="M75.2,178.5l-0.1,0.5c0.1-0.1,0.2-0.2,0.2-0.1L75.2,178.5z"/>
							<polygon fill="#FFFFFF" points="75.1,178.3 75.2,178.5 75.2,178.3 							"/>
							<path fill="#FFFFFF" d="M73.5,177.2c-0.3,0.1-0.6,0.1-0.9,0.1c0.3,0.1,0.6,0.1,1,0.1C73.6,177.3,73.8,177.2,73.5,177.2z"/>
							<path fill="#FFFFFF" d="M74.7,177.2L74.7,177.2C74.6,177.3,74.6,177.3,74.7,177.2z"/>
							<polygon fill="#FFFFFF" points="70.5,177.3 70.6,177.3 70.6,177.3 							"/>
							<path fill="#FFFFFF" d="M73.6,177.4c0.2,0.1,0.4,0,0.6-0.1C73.9,177.3,73.7,177.3,73.6,177.4
								C73.5,177.4,73.5,177.5,73.6,177.4z"/>
							<path fill="#FFFFFF" d="M71.8,177.1c0.1,0.1,0.2,0.1,0.3,0.1C72,177.1,71.8,177,71.8,177.1z"/>
							<path fill="#FFFFFF" d="M74.6,177.2L74.6,177.2C74.6,177.1,74.6,177.1,74.6,177.2z"/>
							<path fill="#FFFFFF" d="M74.6,177.2c-0.2,0.1-0.3,0.1-0.4,0.2c0.2,0,0.3-0.1,0.5-0.1C74.6,177.2,74.6,177.2,74.6,177.2z"/>
							<path fill="#FFFFFF" d="M70,178.8c0.1-0.2,0.4-0.4,0.7-0.2c0.3-0.2,0.1-0.9-0.2-1.2c0,0.1,0,0.2-0.4,0.3
								c0.1,0.1,0.8,0.3,0.5,0.5c-0.5,0.1-0.4-0.1-0.6-0.2c0.2,0.3-0.6,0.4-0.5,0.7l0.4-0.2C70,178.6,69.9,178.7,70,178.8z"/>
							<path fill="#FFFFFF" d="M71.2,177.3h0.2c-0.2-0.1-0.3-0.1-0.5-0.3c-0.2,0.1-0.3,0.2-0.3,0.3H71.2L71.2,177.3z"/>
							<path fill="#FFFFFF" d="M72,177.3c-0.1,0.2-0.5,0.3-0.3,0.6c0.4,0,0.3-0.2,0.6-0.3c-0.5,0.1-0.4,0-0.3-0.1
								C72.2,177.5,72.3,177.5,72,177.3c0.2,0,0.4,0,0.6-0.1c-0.2-0.1-0.4-0.1-0.5-0.1l0,0l0,0l0,0c0.1,0.1,0.1,0.1,0,0.1l0,0
								C72.1,177.3,72,177.3,72,177.3c-0.2-0.1-0.1-0.1,0.1-0.1c0,0,0,0,0-0.1l0,0l-0.7,0.1C71.5,177.3,71.7,177.3,72,177.3z"/>
							<path fill="#FFFFFF" d="M74.2,179.9C74.2,179.8,74.3,179.8,74.2,179.9C74.3,179.7,74.2,179.7,74.2,179.9z"/>
							<path fill="#FFFFFF" d="M74.4,179.5c0.1,0.1,0.1,0.1,0.1,0.2c-0.1,0.2-0.1,0.1-0.2,0.1c0.1,0.1,0.2,0.3,0.3-0.1l-0.1-0.1
								c0.1-0.3,0.4-1,0.4-1C74.7,179,74.6,179.2,74.4,179.5z"/>
							<path fill="#FFFFFF" d="M74,177.9l-0.8,0.1l0.3,0.2l0.1-0.1C73.9,178.1,73.9,178,74,177.9z"/>
							<polygon fill="#FFFFFF" points="70.5,177.2 70.6,176.9 70.3,177.3 							"/>
							<polygon fill="#FFFFFF" points="69.7,177.2 69.8,177 69.6,177.1 							"/>
							<path fill="#FFFFFF" d="M37.6,186.4L37.6,186.4C37.6,186.4,37.6,186.4,37.6,186.4z"/>
							<path fill="#FFFFFF" d="M37.6,185.5l-0.1-0.1C37.5,185.5,37.6,185.5,37.6,185.5z"/>
							<path fill="#FFFFFF" d="M51.7,177.2c-0.3-0.2-0.5-0.5-0.5-0.3l0.1,0.2C51.4,177.2,51.5,177.2,51.7,177.2z"/>
							<path fill="#FFFFFF" d="M39.3,178.6L39.3,178.6c0.1,0,0.2-0.1,0.2-0.2C39.4,178.5,39.4,178.6,39.3,178.6z"/>
							<path fill="#FFFFFF" d="M39.1,179.6l-0.3-0.2C38.9,179.5,39,179.5,39.1,179.6z"/>
							<path fill="#FFFFFF" d="M41.3,186.7l0.2-0.2C41.2,186.5,41.3,186.6,41.3,186.7z"/>
							<path fill="#FFFFFF" d="M62.2,177.3c-0.2-0.1-0.4-0.1-0.5-0.2C61.9,177.3,62.2,177.5,62.2,177.3z"/>
							<path fill="#FFFFFF" d="M35.1,186.2c0.1,0.2,0.1,0.2,0.2,0.2C35.2,186.3,35.2,186.1,35.1,186.2z"/>
							<path fill="#FFFFFF" d="M61.1,177.2c0.1,0,0.1,0.1,0.1,0.1c0.2-0.1,0.3-0.1,0.5-0.1C61.5,177.1,61.3,177,61.1,177.2z"/>
							<path fill="#FFFFFF" d="M65.2,186.9C65.2,186.9,65.2,186.9,65.2,186.9C65.2,186.9,65.2,186.9,65.2,186.9z"/>
							<path fill="#FFFFFF" d="M72.1,189.2c-0.1,0-0.2,0-0.3,0C71.9,189.3,72,189.3,72.1,189.2z"/>
							<path fill="#FFFFFF" d="M66.8,177.1C67,177.1,66.8,177.1,66.8,177.1L66.8,177.1z"/>
							<path fill="#FFFFFF" d="M67.5,178c-0.1,0-0.1,0.1-0.1,0.1C67.5,178.1,67.5,178,67.5,178z"/>
							<path fill="#FFFFFF" d="M59.5,178.6L59.5,178.6L59.5,178.6z"/>
							<path fill="#FFFFFF" d="M67,177.2c-0.1-0.1-0.1-0.1-0.2-0.1C66.8,177.2,66.9,177.2,67,177.2z"/>
							<path fill="#FFFFFF" d="M67,177.1c0.1,0,0.1,0,0.2,0C67.2,177.1,67.1,177.1,67,177.1z"/>
							<path fill="#FFFFFF" d="M66.6,177.1c0.1,0,0.2,0,0.3,0c-0.1,0-0.1-0.1-0.1-0.1C66.7,177.1,66.7,177.1,66.6,177.1z"/>
							<path fill="#FFFFFF" d="M52.4,187.5L52.4,187.5C52.6,187.5,52.5,187.5,52.4,187.5z"/>
							<path fill="#FFFFFF" d="M47.6,179.6L47.6,179.6L47.6,179.6L47.6,179.6z"/>
							<path fill="#FFFFFF" d="M47.1,179.8c0.2-0.3,0.4-0.3,0.5-0.2l-0.2-0.7L47.1,179.8z"/>
							<path fill="#FFFFFF" d="M38.1,186.9c0,0-0.1-0.2,0-0.2c0.3-0.3,0.2-0.2,0.3-0.5c-0.1,0.3-0.2,0.4-0.2,0.4
								c-0.1,0.1-0.1,0-0.3,0.1c-0.1,0.1-0.2,0.1-0.3,0.2l0.2-0.2c0,0.1,0.1,0,0.1,0c0.2-0.2,0.1-0.1-0.1-0.1
								c-0.2,0.1-0.4,0.1-0.3-0.1c0.1-0.2,0.2-0.2,0.3-0.2c0,0-0.2-0.2-0.2-0.2c0-0.2,0.2-0.1,0.1,0l-0.1-0.7l0,0
								c-0.1-0.1-0.3-0.4-0.4-0.5c0.1-0.2,0.1,0.1,0.2,0.1l-0.2-0.4c0.2-0.2,0.4,0.2,0.3,0.5c0.7-0.4-0.2-0.4,0.3-1.2l0.1,0.4
								c0.4-0.3,0.3-0.6,0.5-1c-0.2,0.1-0.6,0.9-0.8,0.4c0.1-0.1,0.1-0.3-0.1-0.5c0.3,0,0.2-0.3,0.2-0.5H38
								c-0.1-0.3-0.3-0.3-0.4-0.5c0.1-0.4,0.3-0.4,0.5-0.5c0.1-0.6-0.4,0.4-0.5-0.3c0.1-0.1,0.1-0.2,0.1-0.3c0-0.1,0-0.1,0-0.2
								c0-0.1,0-0.1,0-0.1c-0.1-0.1-0.1-0.2-0.2-0.4c0.1-0.1,0.2,0.1,0.3,0.1l-0.3-0.3c0-0.1,0.1,0.1,0.1,0.1
								c-0.1-0.2-0.3-0.2-0.4-0.5c-0.2-0.2-0.1-0.2,0.1-0.2c0.3,0.2,0.6,0.3,0.6,0.1c0.1,0.1,0.1,0.2,0.2,0.3
								c0.1-0.2,0.2-0.2,0.2-0.3c0.1-0.1,0.1-0.2,0.3-0.3l0.5,0.2c-0.4-0.3,0.1-0.5,0.5-0.8c-0.1-0.1-0.2-0.2-0.3-0.3l0.6-0.2
								c0.1,0.1,0,0.2-0.1,0.3c0.1-0.1,0.1-0.1,0.1-0.1c0.2,0.1,0.1,0.3-0.1,0.5l-0.2-0.2c-0.2,0.2-0.3,0.4-0.3,0.6
								c0.1-0.1,0.1-0.1,0.2-0.1c-0.1,0.1-0.1,0.1-0.1,0.2c0,0.1,0.1-0.1,0.2-0.1l0.2,0.4l0.1-0.2l0.8,0.2c0.6-0.4,1.1-1,2-1.1
								c-0.2,0.3-0.1,0.5-0.1,0.8c-0.3-0.4-0.7,0.2-1.2,0.1c0.3,0.1,0.2,0.2,0.1,0.3l0.9-0.3c0,0.3,0.2,0.2,0.4,0.3
								c-0.2-0.5,0.6-0.4,1-0.5c0,0.2-0.1,0.4-0.5,0.3c0.5,0.4,0.6-0.6,1.1-0.3c-0.1,0-0.2,0-0.2,0.1c0.3-0.2,0.9-0.1,0.7,0.1h-0.1
								c0.7,0.1,2.1,0,2.2-0.4c0,0.1-0.1,0.5-0.1,0.6l1.2-1.5c-0.1,0.4,0.3,1.3-0.3,1.5c0.2,0.1,0.4,0.1,0.7,0
								c-0.1-0.1-0.3-0.6-0.1-0.6c0.4,0.4,0.3,0.2,0.8,0.6c-0.2-0.1,0-0.7,0.3-0.7c-0.1,0.1,0,0.6-0.1,0.6l0.6-0.6
								c-0.2,0.1-0.1,0.5,0.1,0.7c-0.1-0.1,0.6,0,0.7-0.1l-0.3-0.2c0.7,0.1,0.7-0.9,1.5-0.8c-0.1,0.1-0.2,0.7,0.2,0.9
								c0.2-0.3,0.7-1.5,1.4-1.7l0.1,0.2l0.5-0.2c-0.3,0.5-1.2,1.4-1.7,1.8c0.3,0.2,0.1,0.2,0.5,0.2c0.2,0.2-0.2,0.3-0.4,0.3l1,0.1
								c-0.1-0.4,0.7-0.4,0.7-0.6l-1.1,0.4c-0.1-0.4,0.6-1,1.3-1c0.2,0.2-0.1,0.6-0.1,0.7c0.1-0.1,0.6-0.2,0.7-0.2l-0.3,0.2
								c0.4,0.2,0.6-0.5,1.1-0.1c0.2,0,0.5,0.5,0.5,0.3c-0.3-0.4-0.3-1.7-0.2-2c0.1,0.1,0.9,0.4,1,0.6c0.3,0.3-0.4,0.7-0.2,1.1
								c0-0.1,0.2-0.2,0.2-0.3c0.2,0.1-0.1,0.3,0.3,0.3c0.1-0.4,0.7,0.1,0.2-0.3c0.4-0.1,0.4,0.1,0.8,0.1c-0.2-0.2,0.4-0.8,0.7-0.9
								c0,0.1,0.1,0.2,0.1,0.3c0.7,0.1,1.1,0.2,1.8,0.2c0.1,0.1,0.4,0.2,0.3,0.4c0.1-0.1,0.2-0.2,0.4-0.2c0.4,0.3-0.5,0.1-0.2,0.4
								c0-0.2,0.5-0.3,0.9-0.4c-0.1-0.3-0.7-0.1-1,0.1c0-0.4,0.5-0.9,1.2-1.1c0.6-0.1,0.3,0.3,0.3,0.2c1.1,0.1,0.9-0.8,1.8-0.5
								c0.4,0.3,0,0.6,0.1,0.8c-0.5,0.1-0.7-0.2-1-0.2l0.4,0.2c-0.2,0.1-0.5,0.2-0.6,0.1c0.3,0.3,1.8,0.1,2.6,0.3
								c0.2-0.1,0.4-0.2,0.3-0.3l-0.3-0.1c-0.2-0.2,0.5-0.3,0.2-0.4c0.4-0.2,0.7-0.4,1.2-0.3l0.1,0.3c0-0.1-0.3-0.2-0.5-0.1
								c0.2-0.2,0.7,0.4,1,0l-0.3-0.2c0.4-0.2,0.8-0.5,1.2-0.4c-0.2-0.3-0.1,0.1-0.4-0.3c0.3,0.5-1.1,0-0.7,0.5
								c-0.3-0.4-0.5-0.2-1-0.5c0,0.1,0.2,0.2-0.2,0.2c0,0.1-0.1,0.1-0.1,0.1l0,0l0,0l0,0c0.1,0.1,0.2,0.1,0.2,0.2
								c-0.2,0.3-0.7,0.2-1,0.4c-0.2-0.1,0.1-0.1-0.1-0.2l-0.3,0.2c-0.1-0.2-0.6-0.4-0.1-0.5h-0.5c-0.3-0.2-0.6-0.2-0.9-0.1
								c-0.2-0.1-0.5,0.3-0.4,0.1l-0.7,0.2v-0.1c-0.7-0.1-1.4,0.4-2.3-0.1c-0.2,0.1-0.5,0.2-0.9,0.1l-0.1-0.2
								c-0.3,0.1-0.9-0.2-1.1,0c-0.3-0.5-1.5-0.1-2-0.2v0.3c-0.4,0-0.7,0.1-1.2,0.2l0.1,0.2c-0.4,0.2-1-0.2-1.7-0.2
								c0.1-0.1,0.2-0.1,0.3,0c-0.7-0.5-1.6,0.4-2.3,0c-0.2,0.1-0.3,0.1-0.4,0h0.1h-0.1c-0.1-0.1-0.2-0.1-0.2-0.1
								c0.1,0.1,0.2,0.1,0.2,0.1c-0.1,0-0.3,0.1-0.5,0.1l-0.1-0.3h-0.1c-0.2-0.1-0.2,0.1-0.1,0.3c-0.1,0.1-0.2,0.1-0.3,0.2
								c-0.2-0.4-0.5,0.2-0.7-0.3c-0.1,0.2-1,0.2-1.1,0.6c0-0.1-0.1-0.1,0.1-0.1c-0.2-0.1-0.4-0.1-0.6,0l-0.1-0.3l-0.5,0.4
								c-0.3-0.2-0.4-0.3-0.1-0.6c-0.7,0.4-0.6,0.2-1.2,0.5l0.1-0.2c-0.2,0-0.5,0.3-0.7,0.1c-0.5-0.4-2.3-0.1-3.5-0.4
								c0.2,0.6-0.6-0.3-0.6,0.2c-0.1-0.2-0.2-0.2-0.1-0.4c-0.6,0.2-0.9-0.2-1.3,0.2c-0.1-0.2,0.1-0.2,0.1-0.3
								c-0.1,0.1-0.2,0.1-0.3,0.1c-0.1-0.1,0.1-0.1,0.2-0.2c-0.6,0-0.7,0.5-0.7,0.9c-0.3-0.2-0.5-0.2-0.7,0.1
								c-0.1-0.2-0.3-0.3,0.1-0.3c-0.1,0-0.4-0.1-0.7-0.1c-0.4,0-0.9,0.1-0.8,0.2c-0.1-0.1-0.4,0-0.5,0c-0.7,0-0.7-0.1-1.4,0
								l0.2,0.1c0.1,0.2,0,0.2-0.1,0.2c0,0.2-0.1,0.3-0.1,0.6l-0.1-0.1c-0.2,0.5-0.1,0.6-0.1,0.8c0.1,0.2,0.1,0.3-0.1,0.8l0.3-0.1
								c0.5,0.2-0.3,0.9-0.1,1.4l0.2-0.2c0.2,0.3-0.7,0.8-0.8,1.1c-0.1,0.1-0.1-0.1-0.1-0.2c-0.3,0.7,0.3,0.1,0.4,0.6
								c-0.2,0.1-0.5-0.1-0.5,0.2c-0.2,0.2,0.6,1.1,0.3,1.6c0.2-0.1,0.3-0.2,0.4,0.1c0,0.2-0.1,0.5-0.2,0.7
								c-0.1,0.1-0.1,0.3-0.1,0.4c0,0.1,0.1,0.2,0.2,0.4c-0.1,0.1-0.1,0.1-0.1,0.1c0.1,0.4,0.2,1.4,0.4,1.5
								c-0.3,0.4-0.4,0.9-0.3,1.3c0.9-0.1,1.8-0.4,1.5,0.1l1.3-0.1l-0.1,0.1c0.6,0.1,0.8-0.2,1-0.3c0.2,0.1,0.1,0.1,0,0.2
								c0.9,0.2,1,0.1,1.7-0.3l0.1,0.3c0.2-0.2,1.2,0.4,2.1,0.1c0,0.1,0,0.1-0.1,0.1c1-0.3,2.3,0.7,2.6-0.2l0.6-0.2
								c-0.8-0.1,0.1-0.4-0.2-0.6c0.3-0.1,0.8,0.3,0.4,0.3l-0.1-0.1c-0.2,0.5,1,0.2,1,0.5c1.6,0,3.1,0.3,4.6,0.3l-0.2-0.4h0.5
								c0.2,0.1,0.2,0.3-0.2,0.3c0.2,0.2,0.6-0.2,0.6-0.3c0.7,0.2-0.3,0.5-0.1,0.5l0.3-0.1l-0.1-0.1c0.3-0.2,0.3-0.3,0.7-0.3
								c0.3,0.1,0.2,0.3,0.3,0.3c0,0.1,0.1,0.1,0.2,0l0.6,0.1l-0.3-0.3c0.3-0.2,0.6,0,0.3-0.3c0.4,0.5,2.5,0.2,2.7,0.4
								c0.4-0.2,0.8-0.2,1.3-0.2c-0.1-0.1-0.2-0.4,0.2-0.4c-0.2,0.7,0.8,0.3,1.1,0.8c-0.3-0.3,1.2-0.1,0.7-0.6
								c0.4,0.1,0,0.3,0.3,0.4c0.9-0.3,1.9,0.2,2.9,0.1c0-0.1-0.2-0.2,0.1-0.4l0.5,0.5c0.2-0.1,0.2-0.5,0.6-0.2
								c-0.1-0.1-0.2-0.2,0-0.2c2.1,0.5,4.2-0.4,6.3,0.5c-0.3-0.2-0.1-0.2,0.1-0.2c-0.2-0.1,0-0.2,0-0.4l0.9,0.4c0.2-0.4,1,0,1-0.4
								l-0.3,0.1c0.4-0.4-0.5-0.9-0.5-1.4c-0.4,0.4-1.1-0.7-1.8,0c-0.2-0.1,0.1-0.2,0.1-0.3c-0.2,0.2-0.4,0.3-0.7,0.2l0.1-0.1
								c-1.1,0.1-1.5-0.2-2.8-0.3l0.1,0.3c-0.3-0.1-0.3-0.1-0.4-0.2c-0.3,0.4,0.7,0,0.5,0.4c-0.3-0.5-1.9,0-2.1-0.6
								c-0.4,0,0.1,0.3-0.3,0.3l-0.1-0.2l-0.1,0.2c-0.3-0.1-0.4-0.2-0.4-0.4c0.1,0,0.2-0.1,0.3-0.1c-0.3-0.2-1,0.1-1.1,0l0.4,0.1
								c-1.1,0.2-2.5-0.1-3.5,0.3l0.1,0.1c-0.8,0.2-0.6-0.1-1.5-0.1l0.1-0.1c-0.2,0.1-0.4,0.2-0.6,0.2c0.2-0.2-0.4-0.3-0.1-0.4
								c-0.9,0.2-0.4,0.2-1,0.6l-0.2-0.2c-0.2,0.2-0.2,0.3-0.6,0.3c0.4-0.2-0.3-0.3,0.1-0.5c-0.9-0.4-1.4,0.4-1.8-0.2
								c-0.4,0.5,0.8,0.3,0.6,0.4c0.2,0.2-0.4,0.4-0.6,0.4c-0.3,0-0.5-0.7-1.2-0.7c0.1,0,0.1-0.1,0.2-0.1c-0.3-0.2-0.5,0.2-0.9-0.1
								c-0.2,0.3-0.4,0-0.5,0.4l0.7-0.1c-0.4,0.1-0.7,0.6-1.4,0.4c0.1-0.1,0.3-0.2,0.4-0.3c-0.2-0.1-0.4,0.1-0.5-0.1
								c0.1-0.4,0.9-0.1,1.2-0.4c-0.2-0.2-0.8,0.3-0.6-0.2c-0.3,0.6-0.7-0.1-1.2,0.4l0.1-0.3c-0.1,0.1-0.3,0.2-0.4,0.2l0.3-0.3
								c-0.4,0.3-0.8-0.3-1.2-0.1c0.8,0,0.2,0.3,0.5,0.5c-1,0.3-0.6-0.6-1.7-0.5c0.2-0.1,0.6,0.2,0.3,0.3c-0.2-0.1-0.5-0.2-0.6-0.3
								c-0.7,0.1,0.1,0.3-0.2,0.4c-0.3-0.3-0.4,0.1-0.7,0.2v-0.3c-0.9-0.2-0.2,0.5-1,0.3l0.3-0.4l-0.4,0.1l0.1-0.3
								c-0.4,0.2-0.6,0.2-1,0.1c0.1,0.2-0.1,0.5-0.4,0.5c-0.3-0.2,0.2-0.3-0.4-0.2c0.1-0.2,0.3-0.4,0.5-0.1c0-0.1,0.1-0.2,0.2-0.3
								c-0.3-0.2-0.7-0.1-0.9-0.1c0.1,0,0.2,0,0.2,0.1l-0.8,0.4c-0.1-0.1,0-0.2,0.1-0.3c-0.2,0.1-0.3,0.2-0.5,0.2
								c0.1-0.2,0.1-0.4,0.4-0.5l-0.7,0.2c-0.1-0.1-0.4-0.3-0.3-0.3c-0.4-0.1-1,0.4-1.5,0.3c-0.1,0.1-0.1,0.1-0.2,0.1
								c-0.5-0.1-1-0.3-1.6,0l-0.3-0.4c-0.5,0.1,0.5,0.5-0.3,0.6c-0.6,0.1-0.2-0.3-0.4-0.4c-0.1,0.1-0.1,0.1-0.1,0.2
								C38.3,186.7,38.2,186.8,38.1,186.9c-0.1,0.1-0.2,0.1-0.2-0.1C38,186.9,38,186.9,38.1,186.9z M37.5,183.6
								c0.1,0.1,0.2,0.3,0.1,0.4C37.3,184,37.4,183.9,37.5,183.6z M40.1,179.1c-0.1,0.1-0.2,0.1-0.4-0.1
								C39.9,179.1,40,179.1,40.1,179.1z M65.1,177.3L65.1,177.3C64.8,177.2,64.9,177.3,65.1,177.3z M65.6,177.5
								c0.1-0.1,0.1-0.1,0.1-0.1c-0.1,0.1-0.2,0.1-0.3,0.1C65.4,177.5,65.5,177.5,65.6,177.5z M54.1,189.2l-0.1-0.1
								C54.2,189.1,54.1,189.2,54.1,189.2z"/>
							<path fill="#FFFFFF" d="M39.1,179.5c-0.1-0.1-0.1-0.1-0.1-0.2C39.1,179.4,39.1,179.4,39.1,179.5z"/>
							<path fill="#FFFFFF" d="M41.3,186.8L41.3,186.8C41.3,186.7,41.3,186.7,41.3,186.8L41.3,186.8z"/>
							<path fill="#FFFFFF" d="M57.4,179.6c-0.1-0.1-0.2-0.1-0.2-0.1C57.2,179.5,57.3,179.6,57.4,179.6z"/>
							<path fill="#FFFFFF" d="M68.4,177l-0.3,0.1c0.2,0,0.2,0.1,0.3,0.1C68.3,177.1,68.3,177,68.4,177z"/>
							<path fill="#FFFFFF" d="M71.3,178.6c0.1-0.1,0.1,0,0.2-0.1v-0.1C71.3,178.5,71.1,178.5,71.3,178.6z"/>
							<path fill="#FFFFFF" d="M68.7,177.9c0.1,0.2,0.2,0.2,0.5,0.1h-0.1C69.2,177.7,69,177.8,68.7,177.9z"/>
							<path fill="#FFFFFF" d="M69.2,177.9c0.1,0,0.2,0,0.2,0C69.5,177.8,69.4,177.9,69.2,177.9z"/>
							<path fill="#FFFFFF" d="M66.3,177.3c0.1,0.1,0.1-0.3,0.2-0.2C66.5,176.8,65.7,177.5,66.3,177.3z"/>
							<polygon fill="#FFFFFF" points="68.9,178.6 68.8,178.3 68.7,178.5 							"/>
							<path fill="#FFFFFF" d="M67.1,178.4l0.4,0.1c0-0.1,0.1-0.1,0.1-0.1C67.3,178.4,67,178.3,67.1,178.4z"/>
							<path fill="#FFFFFF" d="M67.5,178.4c0.1,0,0.2,0,0.3-0.1C67.8,178.3,67.6,178.3,67.5,178.4z"/>
							<polygon fill="#FFFFFF" points="68.4,178.6 68.3,178.6 68,178.6 							"/>
							<path fill="#FFFFFF" d="M63,178.3l-0.4,0.1c-0.1,0.1,0.1,0.2,0.2,0.1C62.9,178.5,63,178.4,63,178.3z"/>
							<path fill="#FFFFFF" d="M64.2,179.1c-0.1-0.1-0.1-0.1-0.2-0.2v0.3L64.2,179.1z"/>
							<path fill="#FFFFFF" d="M63,179.1c-0.1,0.1-0.6,0.3-0.1,0.3C63,179.3,63.4,179.2,63,179.1z"/>
							<polygon fill="#FFFFFF" points="56.8,178.7 56.9,178.7 56.9,178.1 							"/>
							<path fill="#FFFFFF" d="M51.3,180c0.5,0.1,0.1-0.3,0.5-0.2c0.1-0.1-0.4-0.1-0.3-0.3C51.3,179.7,51.2,179.6,51.3,180z"/>
							<path fill="#FFFFFF" d="M51.6,179.6c0.1,0,0.1-0.1,0.2-0.1C51.7,179.5,51.7,179.6,51.6,179.6z"/>
							<polygon fill="#FFFFFF" points="73.3,189.6 73.6,189.7 73.4,189.4 							"/>
							<path fill="#FFFFFF" d="M73.9,189.1l0.1,0.3l0.2-0.3C74.1,189.2,73.9,189.2,73.9,189.1z"/>
							<path fill="#FFFFFF" d="M38.2,182.8h-0.1c-0.1,0.1-0.1,0.1-0.1,0.3L38.2,182.8z"/>
							<path fill="#FFFFFF" d="M37.9,186.4L37.9,186.4c0,0-0.1,0-0.2,0.1c-0.1,0.1-0.2,0.1-0.2,0.1L37.9,186.4z"/>
							<path fill="#FFFFFF" d="M38.7,186.2c-0.1,0-0.2,0-0.2,0h-0.1l0,0l0,0c0.1,0,0.1,0,0.1,0S38.6,186.3,38.7,186.2
								C38.7,186.4,38.7,186.4,38.7,186.2z"/>
						</g>
					</g>
				</g>
			</g>
		</g>
		<g>
			<rect x="36.3" y="191.5" fill="#FFFFFF" width="37.8" height="9.6"/>
			<g>
				<g>
					<g>
						<g>
							<path fill="#FFFFFF" d="M75.4,201.1c0,0.2,0.2,0.1,0.3,0.1C75.6,201,75.4,201.1,75.4,201.1z"/>
							<polygon fill="#FFFFFF" points="74.9,198.8 75,198.8 74.8,198.5 							"/>
							<path fill="#FFFFFF" d="M74.9,196.6c-0.4,0.2,0.1,0.8-0.1,1.2l-0.1,0.1l0.3,0.2C75.1,197.6,74.8,197,74.9,196.6z"/>
							<path fill="#FFFFFF" d="M75.7,195.5c-0.2,0.1-0.1-0.3-0.1,0.3c0,0,0-0.1,0.1-0.1C75.7,195.6,75.7,195.6,75.7,195.5z"/>
							<path fill="#FFFFFF" d="M75.7,195.7C75.7,195.9,75.9,195.5,75.7,195.7L75.7,195.7z"/>
							<path fill="#FFFFFF" d="M75.7,194.6l0.1,0.3c0.1-0.1,0.1-0.3,0.2-0.2C75.9,194.4,75.8,194.5,75.7,194.6z"/>
							<path fill="#FFFFFF" d="M75.4,194.4l0.1,0.2C75.5,194.5,75.5,194.4,75.4,194.4z"/>
							<path fill="#FFFFFF" d="M75.6,194.8l-0.1-0.3c-0.1,0.1-0.2,0.1,0.1,0.2C75.4,194.6,75.5,194.7,75.6,194.8z"/>
							<path fill="#FFFFFF" d="M75.5,195c-0.1,0.2-0.2,0.4-0.3,0.1C75.3,195.7,75.5,195.6,75.5,195z"/>
							<path fill="#FFFFFF" d="M74.5,196.5l-0.1,0.2l0.1,0.2C74.5,196.8,74.7,196.5,74.5,196.5z"/>
							<path fill="#FFFFFF" d="M75.9,192.1c-0.1,0-0.2,0.3-0.3,0.3l0.1,0.4C75.7,192.5,75.7,192.1,75.9,192.1z"/>
							<path fill="#FFFFFF" d="M75.5,192.4l-0.2-0.5C75.4,192.4,75.5,192.4,75.5,192.4z"/>
							<polygon fill="#FFFFFF" points="74.9,194.3 75.3,194.8 74.9,194.2 							"/>
							<polygon fill="#FFFFFF" points="75.7,189.8 76,189.8 76.1,189.9 76,189.7 75.4,189.9 							"/>
							<path fill="#FFFFFF" d="M74.2,189.9c0.4-0.2-0.2-0.3,0.1-0.4c-0.5,0.1-0.9,0.2-1.3,0.3C73.4,189.7,73.8,189.7,74.2,189.9z"/>
							<path fill="#FFFFFF" d="M72.5,189.9c0.2-0.1,0.4-0.1,0.6-0.2C72.9,189.8,72.7,189.9,72.5,189.9z"/>
							<path fill="#FFFFFF" d="M75.4,190.9c0.1-0.1,0.2-0.3,0.2-0.6l-0.2,0.4C75.4,190.8,75.4,190.9,75.4,190.9z"/>
							<path fill="#FFFFFF" d="M75.4,190.7L75.4,190.7c0-0.3,0-0.4,0-0.5C75.5,190.3,75.5,190.5,75.4,190.7z"/>
							<path fill="#FFFFFF" d="M75.4,191L75.4,191C75.4,191,75.4,191,75.4,191z"/>
							<path fill="#FFFFFF" d="M75.2,193.3c-0.1-0.3-0.3-0.8-0.5-0.2C74.9,193.2,75,192.9,75.2,193.3z"/>
							<path fill="#FFFFFF" d="M75.2,191.5l-0.1,0.5c0.1-0.1,0.2-0.2,0.2-0.1L75.2,191.5z"/>
							<polygon fill="#FFFFFF" points="75.1,191.3 75.2,191.5 75.2,191.3 							"/>
							<path fill="#FFFFFF" d="M73.5,190.1c-0.3,0.1-0.6,0.1-0.9,0.1c0.3,0.1,0.6,0.1,1,0.1C73.6,190.3,73.8,190.1,73.5,190.1z"/>
							<path fill="#FFFFFF" d="M74.7,190.2L74.7,190.2C74.6,190.2,74.6,190.2,74.7,190.2z"/>
							<polygon fill="#FFFFFF" points="70.5,190.3 70.6,190.3 70.6,190.3 							"/>
							<path fill="#FFFFFF" d="M73.6,190.4c0.2,0.1,0.4,0,0.6-0.1C73.9,190.4,73.7,190.4,73.6,190.4
								C73.5,190.4,73.5,190.4,73.6,190.4z"/>
							<path fill="#FFFFFF" d="M71.8,190c0.1,0.1,0.2,0.1,0.3,0.1C72,190.1,71.8,190,71.8,190z"/>
							<path fill="#FFFFFF" d="M74.6,190.2L74.6,190.2C74.6,190.1,74.6,190.1,74.6,190.2z"/>
							<path fill="#FFFFFF" d="M74.6,190.2c-0.2,0.1-0.3,0.1-0.4,0.2c0.2,0,0.3-0.1,0.5-0.1C74.6,190.2,74.6,190.2,74.6,190.2z"/>
							<path fill="#FFFFFF" d="M70,191.7c0.1-0.2,0.4-0.4,0.7-0.2c0.3-0.2,0.1-0.9-0.2-1.2c0,0.1,0,0.2-0.4,0.3
								c0.1,0.1,0.8,0.3,0.5,0.5c-0.5,0.1-0.4-0.1-0.6-0.2c0.2,0.3-0.6,0.4-0.5,0.7l0.4-0.2C70,191.6,69.9,191.7,70,191.7z"/>
							<path fill="#FFFFFF" d="M71.2,190.4h0.2c-0.2-0.1-0.3-0.1-0.5-0.3c-0.2,0.1-0.3,0.2-0.3,0.3H71.2L71.2,190.4z"/>
							<path fill="#FFFFFF" d="M72,190.3c-0.1,0.2-0.5,0.3-0.3,0.6c0.4,0,0.3-0.2,0.6-0.3c-0.5,0.1-0.4,0-0.3-0.1
								C72.2,190.5,72.3,190.4,72,190.3c0.2,0,0.4,0,0.6-0.1c-0.2-0.1-0.4-0.1-0.5-0.1l0,0l0,0l0,0c0.1,0.1,0.1,0.1,0,0.1l0,0
								C72.1,190.2,72,190.3,72,190.3c-0.2-0.1-0.1-0.1,0.1-0.1c0,0,0,0,0-0.1l0,0l-0.7,0.1C71.5,190.4,71.7,190.4,72,190.3z"/>
							<path fill="#FFFFFF" d="M74.2,192.8C74.2,192.8,74.3,192.8,74.2,192.8C74.3,192.8,74.2,192.8,74.2,192.8z"/>
							<path fill="#FFFFFF" d="M74.4,192.4c0.1,0.1,0.1,0.1,0.1,0.2c-0.1,0.2-0.1,0.1-0.2,0.1c0.1,0.1,0.2,0.3,0.3-0.1l-0.1-0.1
								c0.1-0.3,0.4-1,0.4-1C74.7,192,74.6,192.2,74.4,192.4z"/>
							<path fill="#FFFFFF" d="M74,190.9l-0.8,0.1l0.3,0.2l0.1-0.1C73.9,191.1,73.9,191,74,190.9z"/>
							<polygon fill="#FFFFFF" points="70.5,190.1 70.6,189.9 70.3,190.2 							"/>
							<polygon fill="#FFFFFF" points="69.7,190.2 69.8,190 69.6,190.1 							"/>
							<path fill="#FFFFFF" d="M37.6,199.3L37.6,199.3C37.6,199.4,37.6,199.4,37.6,199.3z"/>
							<path fill="#FFFFFF" d="M37.6,198.4l-0.1-0.1C37.5,198.5,37.6,198.5,37.6,198.4z"/>
							<path fill="#FFFFFF" d="M51.7,190.2c-0.3-0.2-0.5-0.5-0.5-0.3l0.1,0.2C51.4,190.1,51.5,190.2,51.7,190.2z"/>
							<path fill="#FFFFFF" d="M39.3,191.6L39.3,191.6c0.1,0,0.2-0.1,0.2-0.2C39.4,191.5,39.4,191.5,39.3,191.6z"/>
							<path fill="#FFFFFF" d="M39.1,192.5l-0.3-0.2C38.9,192.4,39,192.5,39.1,192.5z"/>
							<path fill="#FFFFFF" d="M41.3,199.7l0.2-0.2C41.2,199.5,41.3,199.6,41.3,199.7z"/>
							<path fill="#FFFFFF" d="M62.2,190.3c-0.2-0.1-0.4-0.1-0.5-0.2C61.9,190.2,62.2,190.5,62.2,190.3z"/>
							<path fill="#FFFFFF" d="M35.1,199.2c0.1,0.2,0.1,0.2,0.2,0.2C35.2,199.2,35.2,199.2,35.1,199.2z"/>
							<path fill="#FFFFFF" d="M61.1,190.1c0.1,0,0.1,0.1,0.1,0.1c0.2-0.1,0.3-0.1,0.5-0.1C61.5,190,61.3,190,61.1,190.1z"/>
							<path fill="#FFFFFF" d="M65.2,199.9C65.2,199.9,65.2,199.9,65.2,199.9C65.2,199.9,65.2,199.9,65.2,199.9z"/>
							<path fill="#FFFFFF" d="M72.1,202.2c-0.1,0-0.2,0-0.3,0C71.9,202.2,72,202.2,72.1,202.2z"/>
							<path fill="#FFFFFF" d="M66.8,190.1C67,190.1,66.8,190.1,66.8,190.1L66.8,190.1z"/>
							<path fill="#FFFFFF" d="M67.5,191c-0.1,0-0.1,0.1-0.1,0.1C67.5,191,67.5,191,67.5,191z"/>
							<path fill="#FFFFFF" d="M59.5,191.6L59.5,191.6C59.5,191.6,59.5,191.6,59.5,191.6z"/>
							<path fill="#FFFFFF" d="M67,190.2c-0.1-0.1-0.1-0.1-0.2-0.1C66.8,190.1,66.9,190.2,67,190.2z"/>
							<path fill="#FFFFFF" d="M67,190.1c0.1,0,0.1,0,0.2,0C67.2,190.1,67.1,190,67,190.1z"/>
							<path fill="#FFFFFF" d="M66.6,190.1c0.1,0,0.2,0,0.3,0c-0.1,0-0.1-0.1-0.1-0.1C66.7,190.1,66.7,190.1,66.6,190.1z"/>
							<path fill="#FFFFFF" d="M52.4,200.5C52.4,200.5,52.4,200.5,52.4,200.5C52.6,200.4,52.5,200.4,52.4,200.5z"/>
							<path fill="#FFFFFF" d="M47.6,192.6C47.6,192.6,47.6,192.6,47.6,192.6C47.6,192.6,47.6,192.6,47.6,192.6L47.6,192.6z"/>
							<path fill="#FFFFFF" d="M47.1,192.8c0.2-0.3,0.4-0.3,0.5-0.2l-0.2-0.7L47.1,192.8z"/>
							<path fill="#FFFFFF" d="M38.1,199.8c0,0-0.1-0.2,0-0.2c0.3-0.3,0.2-0.2,0.3-0.5c-0.1,0.3-0.2,0.4-0.2,0.4
								c-0.1,0.1-0.1,0-0.3,0.1c-0.1,0.1-0.2,0.1-0.3,0.2l0.2-0.2c0,0.1,0.1,0,0.1,0c0.2-0.2,0.1-0.1-0.1-0.1
								c-0.2,0.1-0.4,0.1-0.3-0.1c0.1-0.2,0.2-0.2,0.3-0.2c0,0-0.2-0.2-0.2-0.2c0-0.2,0.2-0.1,0.1,0l-0.1-0.7l0,0
								c-0.1-0.1-0.3-0.4-0.4-0.5c0.1-0.2,0.1,0.1,0.2,0.1l-0.2-0.4c0.2-0.2,0.4,0.2,0.3,0.5c0.7-0.4-0.2-0.4,0.3-1.2l0.1,0.4
								c0.4-0.3,0.3-0.6,0.5-1c-0.2,0.1-0.6,0.9-0.8,0.4c0.1-0.1,0.1-0.3-0.1-0.5c0.3,0,0.2-0.3,0.2-0.5H38
								c-0.1-0.3-0.3-0.3-0.4-0.5c0.1-0.4,0.3-0.4,0.5-0.5c0.1-0.6-0.4,0.4-0.5-0.3c0.1-0.1,0.1-0.2,0.1-0.3c0-0.1,0-0.1,0-0.2
								s0-0.1,0-0.1c-0.1-0.1-0.1-0.2-0.2-0.4c0.1-0.1,0.2,0.1,0.3,0.1l-0.3-0.3c0-0.1,0.1,0.1,0.1,0.1c-0.1-0.2-0.3-0.2-0.4-0.5
								c-0.2-0.2-0.1-0.2,0.1-0.2c0.3,0.2,0.6,0.3,0.6,0.1c0.1,0.1,0.1,0.2,0.2,0.3c0.1-0.2,0.2-0.2,0.2-0.3
								c0.1-0.1,0.1-0.2,0.3-0.3l0.5,0.2c-0.4-0.3,0.1-0.5,0.5-0.8c-0.1-0.1-0.2-0.2-0.3-0.3l0.6-0.2c0.1,0.1,0,0.2-0.1,0.3
								c0.1-0.1,0.1-0.1,0.1-0.1c0.2,0.1,0.1,0.3-0.1,0.5l-0.2-0.2c-0.2,0.2-0.3,0.4-0.3,0.6c0.1-0.1,0.1-0.1,0.2-0.1
								c-0.1,0.1-0.1,0.1-0.1,0.2c0,0.1,0.1-0.1,0.2-0.1l0.2,0.4l0.1-0.2l0.8,0.2c0.6-0.4,1.1-1,2-1.1c-0.2,0.3-0.1,0.5-0.1,0.8
								c-0.3-0.4-0.7,0.2-1.2,0.1c0.3,0.1,0.2,0.2,0.1,0.3l0.9-0.3c0,0.3,0.2,0.2,0.4,0.3c-0.2-0.5,0.6-0.4,1-0.5
								c0,0.2-0.1,0.4-0.5,0.3c0.5,0.4,0.6-0.6,1.1-0.3c-0.1,0-0.2,0-0.2,0.1c0.3-0.2,0.9-0.1,0.7,0.1h-0.1c0.7,0.1,2.1,0,2.2-0.4
								c0,0.1-0.1,0.5-0.1,0.6l1.2-1.5c-0.1,0.4,0.3,1.3-0.3,1.5c0.2,0.1,0.4,0.1,0.7,0c-0.1-0.1-0.3-0.6-0.1-0.6
								c0.4,0.4,0.3,0.2,0.8,0.6c-0.2-0.1,0-0.7,0.3-0.7c-0.1,0.1,0,0.6-0.1,0.6L50,192c-0.2,0.1-0.1,0.5,0.1,0.7
								c-0.1-0.1,0.6,0,0.7-0.1l-0.3-0.2c0.7,0.1,0.7-0.9,1.5-0.8c-0.1,0.1-0.2,0.7,0.2,0.9c0.2-0.3,0.7-1.5,1.4-1.7l0.1,0.2
								l0.5-0.2c-0.3,0.5-1.2,1.4-1.7,1.8c0.3,0.2,0.1,0.2,0.5,0.2c0.2,0.2-0.2,0.3-0.4,0.3l1,0.1c-0.1-0.4,0.7-0.4,0.7-0.6
								l-1.1,0.4c-0.1-0.4,0.6-1,1.3-1c0.2,0.2-0.1,0.6-0.1,0.7c0.1-0.1,0.6-0.2,0.7-0.2l-0.3,0.2c0.4,0.2,0.6-0.5,1.1-0.1
								c0.2,0,0.5,0.5,0.5,0.3c-0.3-0.4-0.3-1.7-0.2-2c0.1,0.1,0.9,0.4,1,0.6c0.3,0.3-0.4,0.7-0.2,1.1c0-0.1,0.2-0.2,0.2-0.3
								c0.2,0.1-0.1,0.3,0.3,0.3c0.1-0.4,0.7,0.1,0.2-0.3c0.4-0.1,0.4,0.1,0.8,0.1c-0.2-0.2,0.4-0.8,0.7-0.9c0,0.1,0.1,0.2,0.1,0.3
								c0.7,0.1,1.1,0.2,1.8,0.2c0.1,0.1,0.4,0.2,0.3,0.4c0.1-0.1,0.2-0.2,0.4-0.2c0.4,0.3-0.5,0.1-0.2,0.4c0-0.2,0.5-0.3,0.9-0.4
								c-0.1-0.3-0.7-0.1-1,0.1c0-0.4,0.5-0.9,1.2-1.1c0.6-0.1,0.3,0.3,0.3,0.2c1.1,0.1,0.9-0.8,1.8-0.5c0.4,0.3,0,0.6,0.1,0.8
								c-0.5,0.1-0.7-0.2-1-0.2l0.4,0.2c-0.2,0.1-0.5,0.2-0.6,0.1c0.3,0.3,1.8,0.1,2.6,0.3c0.2-0.1,0.4-0.2,0.3-0.3l-0.3,0.1
								c-0.2-0.2,0.5-0.3,0.2-0.4c0.4-0.2,0.7-0.4,1.2-0.3l0.1,0.3c0-0.1-0.3-0.2-0.5-0.1c0.2-0.2,0.7,0.4,1,0l-0.3-0.2
								c0.4-0.2,0.8-0.5,1.2-0.4c-0.2-0.3-0.1,0.1-0.4-0.3c0.3,0.5-1.1,0-0.7,0.5c-0.3-0.4-0.5-0.2-1-0.5c0,0.1,0.2,0.2-0.2,0.2
								c0,0.1-0.1,0.1-0.1,0.1l0,0l0,0l0,0c0.1,0.1,0.2,0.1,0.2,0.2c-0.2,0.3-0.7,0.2-1,0.4c-0.2-0.1,0.1-0.1-0.1-0.2l-0.3,0.2
								c-0.1-0.2-0.6-0.4-0.1-0.5h-0.5c-0.3-0.2-0.6-0.2-0.9-0.1c-0.2-0.1-0.5,0.3-0.4,0.1l-0.7,0.2v-0.1c-0.7-0.1-1.4,0.4-2.3-0.1
								c-0.2,0.1-0.5,0.2-0.9,0.1l-0.1-0.2c-0.3,0.1-0.9-0.2-1.1,0c-0.3-0.5-1.5-0.1-2-0.2v0.3c-0.4,0-0.7,0.1-1.2,0.2l0.1,0.2
								c-0.4,0.2-1-0.2-1.7-0.2c0.1-0.1,0.2-0.1,0.3,0c-0.7-0.5-1.6,0.4-2.3,0c-0.2,0.1-0.3,0.1-0.4,0h0.1h-0.1
								c-0.1-0.1-0.2-0.1-0.2-0.1c0.1,0.1,0.2,0.1,0.2,0.1c-0.1,0-0.3,0.1-0.5,0.1l-0.1-0.3h-0.1c-0.2-0.1-0.2,0.1-0.1,0.3
								c-0.1,0.1-0.2,0.1-0.3,0.2c-0.2-0.4-0.5,0.2-0.7-0.3c-0.1,0.2-1,0.2-1.1,0.6c0-0.1-0.1-0.1,0.1-0.1c-0.2-0.1-0.4-0.1-0.6,0
								l-0.1-0.3l-0.5,0.4c-0.3-0.2-0.4-0.3-0.1-0.6c-0.7,0.4-0.6,0.2-1.2,0.5l0.1-0.2c-0.2,0-0.5,0.3-0.7,0.1
								c-0.5-0.4-2.3-0.1-3.5-0.4c0.2,0.6-0.6-0.3-0.6,0.2c-0.1-0.2-0.2-0.2-0.1-0.4c-0.6,0.2-0.9-0.2-1.3,0.2
								c-0.1-0.2,0.1-0.2,0.1-0.3c-0.1,0.1-0.2,0.1-0.3,0.1c-0.1-0.1,0.1-0.1,0.2-0.2c-0.6,0-0.7,0.5-0.7,0.9
								c-0.3-0.2-0.5-0.2-0.7,0.1c-0.1-0.2-0.3-0.3,0.1-0.3c-0.1,0-0.4-0.1-0.7-0.1c-0.4,0-0.9,0.1-0.8,0.2c-0.1-0.1-0.4,0-0.5,0
								c-0.7,0-0.7-0.1-1.4,0l0.2,0.1c0.1,0.2,0,0.2-0.1,0.2c0,0.2-0.1,0.3-0.1,0.6l-0.1-0.1c-0.2,0.5-0.1,0.6-0.1,0.8
								c0.1,0.2,0.1,0.3-0.1,0.8l0.3-0.1c0.5,0.2-0.3,0.9-0.1,1.4l0.2-0.2c0.2,0.3-0.7,0.8-0.8,1.1c-0.1,0.1-0.1-0.1-0.1-0.2
								c-0.3,0.7,0.3,0.1,0.4,0.6c-0.2,0.1-0.5-0.1-0.5,0.2c-0.2,0.2,0.6,1.1,0.3,1.6c0.2-0.1,0.3-0.2,0.4,0.1
								c0,0.2-0.1,0.5-0.2,0.7c-0.1,0.1-0.1,0.3-0.1,0.4s0.1,0.2,0.2,0.4c-0.1,0.1-0.1,0.1-0.1,0.1c0.1,0.4,0.2,1.4,0.4,1.5
								c-0.3,0.4-0.4,0.9-0.3,1.3c0.9-0.1,1.8-0.4,1.5,0.1l1.4-0.1l-0.1,0.1c0.6,0.1,0.8-0.2,1-0.3c0.2,0.1,0.1,0.1,0,0.2
								c0.9,0.2,1,0.1,1.7-0.3l0.1,0.3c0.2-0.2,1.2,0.4,2.1,0.1c0,0.1,0,0.1-0.1,0.1c1-0.3,2.3,0.7,2.6-0.2l0.6-0.2
								c-0.8-0.1,0.1-0.4-0.2-0.6c0.3-0.1,0.8,0.3,0.4,0.3l-0.1-0.1c-0.2,0.5,1,0.2,1,0.5c1.6,0,3.1,0.3,4.6,0.3l-0.2-0.4h0.5
								c0.2,0.1,0.2,0.3-0.2,0.3c0.2,0.2,0.6-0.2,0.6-0.3c0.7,0.2-0.3,0.5-0.1,0.5l0.3-0.1l-0.1-0.1c0.3-0.2,0.3-0.3,0.7-0.3
								c0.3,0.1,0.2,0.3,0.3,0.3c0,0.1,0.1,0.1,0.2,0l0.6,0.1l-0.3-0.3c0.3-0.2,0.6,0,0.3-0.3c0.4,0.5,2.5,0.2,2.7,0.4
								c0.4-0.2,0.8-0.2,1.3-0.2c-0.1-0.1-0.2-0.4,0.2-0.4c-0.2,0.7,0.8,0.3,1.1,0.8c-0.3-0.3,1.2-0.1,0.7-0.6
								c0.4,0.1,0,0.3,0.3,0.4c0.9-0.3,1.9,0.2,2.9,0.1c0-0.1-0.2-0.2,0.1-0.4l0.5,0.5c0.2-0.1,0.2-0.5,0.6-0.2
								c-0.1-0.1-0.2-0.2,0-0.2c2.1,0.5,4.2-0.4,6.3,0.5c-0.3-0.2-0.1-0.2,0.1-0.2c-0.2-0.1,0-0.2,0-0.4l0.9,0.4c0.2-0.4,1,0,1-0.4
								l-0.3,0.1c0.4-0.4-0.5-0.9-0.5-1.4c-0.4,0.4-1.1-0.7-1.8,0c-0.2-0.1,0.1-0.2,0.1-0.3c-0.2,0.2-0.4,0.3-0.7,0.2l0.1-0.1
								c-1.1,0.1-1.5-0.2-2.8-0.3l0.1,0.3c-0.3-0.1-0.3-0.1-0.4-0.2c-0.3,0.4,0.7,0,0.5,0.4c-0.3-0.5-1.9,0-2.1-0.6
								c-0.4,0,0.1,0.3-0.3,0.3l-0.1-0.2l-0.1,0.2c-0.3-0.1-0.4-0.2-0.4-0.4c0.1,0,0.2-0.1,0.3-0.1c-0.3-0.2-1,0.1-1.1,0l0.4,0.1
								c-1.1,0.2-2.5-0.1-3.5,0.3l0.1,0.1c-0.8,0.2-0.6-0.1-1.5-0.1l0.1-0.1c-0.2,0.1-0.4,0.2-0.6,0.2c0.2-0.2-0.4-0.3-0.1-0.4
								c-0.9,0.2-0.4,0.2-1,0.6l-0.2-0.2c-0.2,0.2-0.2,0.3-0.6,0.3c0.4-0.2-0.3-0.3,0.1-0.5c-0.9-0.4-1.4,0.4-1.8-0.2
								c-0.4,0.5,0.8,0.3,0.6,0.4c0.2,0.2-0.4,0.4-0.6,0.4c-0.3,0-0.5-0.7-1.2-0.7c0.1,0,0.1-0.1,0.2-0.1c-0.3-0.2-0.5,0.2-0.9-0.1
								c-0.2,0.3-0.4,0-0.5,0.4l0.7-0.1c-0.4,0.1-0.7,0.6-1.4,0.4c0.1-0.1,0.3-0.2,0.4-0.3c-0.2-0.1-0.4,0.1-0.5-0.1
								c0.1-0.4,0.9-0.1,1.2-0.4c-0.2-0.2-0.8,0.3-0.6-0.2c-0.3,0.6-0.7-0.1-1.2,0.4l0.1-0.3c-0.1,0.1-0.3,0.2-0.4,0.2l0.3-0.3
								c-0.4,0.3-0.8-0.3-1.2-0.1c0.8,0,0.2,0.3,0.5,0.5c-1,0.3-0.6-0.6-1.7-0.5c0.2-0.1,0.6,0.2,0.3,0.3c-0.2-0.1-0.5-0.2-0.6-0.3
								c-0.7,0.1,0.1,0.3-0.2,0.4c-0.3-0.3-0.4,0.1-0.7,0.2v-0.3c-0.9-0.2-0.2,0.5-1,0.3l0.3-0.4l-0.4,0.1l0.1-0.3
								c-0.4,0.2-0.6,0.2-1,0.1c0.1,0.2-0.1,0.5-0.4,0.5c-0.3-0.2,0.2-0.3-0.4-0.2c0.1-0.2,0.3-0.4,0.5-0.1c0-0.1,0.1-0.2,0.2-0.3
								c-0.3-0.2-0.7-0.1-0.9-0.1c0.1,0,0.2,0,0.2,0.1l-0.8,0.4c-0.1-0.1,0-0.2,0.1-0.3c-0.2,0.1-0.3,0.2-0.5,0.2
								c0.1-0.2,0.1-0.4,0.4-0.5l-0.7,0.2c-0.1-0.1-0.4-0.3-0.3-0.3c-0.4-0.1-1,0.4-1.5,0.3c-0.1,0.1-0.1,0.1-0.2,0.1
								c-0.5-0.1-1-0.3-1.6,0l-0.3-0.4c-0.5,0.1,0.5,0.5-0.3,0.6c-0.6,0.1-0.2-0.3-0.4-0.4c-0.1,0.1-0.1,0.1-0.1,0.2
								c-0.1,0.1-0.1,0.1-0.2,0.2c-0.1,0.1-0.3,0.1-0.3-0.1C38,199.8,38,199.9,38.1,199.8z M37.5,196.6c0.1,0.1,0.2,0.3,0.1,0.4
								C37.3,196.9,37.4,196.8,37.5,196.6z M40.1,192.1c-0.1,0.1-0.2,0.1-0.4-0.1C39.9,192,40,192,40.1,192.1z M65.1,190.3
								L65.1,190.3C64.8,190.2,64.9,190.2,65.1,190.3z M65.6,190.4c0.1-0.1,0.1-0.1,0.1-0.1c-0.1,0.1-0.2,0.1-0.3,0.1
								C65.4,190.4,65.5,190.5,65.6,190.4z M54.1,202.2l-0.1-0.1C54.2,202.1,54.1,202.1,54.1,202.2z"/>
							<path fill="#FFFFFF" d="M39.1,192.4c-0.1-0.1-0.1-0.1-0.1-0.2C39.1,192.3,39.1,192.4,39.1,192.4z"/>
							<path fill="#FFFFFF" d="M41.3,199.7L41.3,199.7C41.3,199.7,41.3,199.7,41.3,199.7L41.3,199.7z"/>
							<path fill="#FFFFFF" d="M57.4,192.6c-0.1-0.1-0.2-0.1-0.2-0.1C57.2,192.5,57.3,192.6,57.4,192.6z"/>
							<path fill="#FFFFFF" d="M68.4,190l-0.3,0.1c0.2,0,0.2,0.1,0.3,0.1C68.3,190.1,68.3,190,68.4,190z"/>
							<path fill="#FFFFFF" d="M71.3,191.6c0.1-0.1,0.1,0,0.2-0.1v-0.1C71.3,191.4,71.1,191.5,71.3,191.6z"/>
							<path fill="#FFFFFF" d="M68.7,190.8c0.1,0.2,0.2,0.2,0.5,0.1h-0.1C69.2,190.6,69,190.7,68.7,190.8z"/>
							<path fill="#FFFFFF" d="M69.2,190.9c0.1,0,0.2,0,0.2,0C69.5,190.8,69.4,190.9,69.2,190.9z"/>
							<path fill="#FFFFFF" d="M66.3,190.2c0.1,0.1,0.1-0.3,0.2-0.2C66.5,189.8,65.7,190.4,66.3,190.2z"/>
							<polygon fill="#FFFFFF" points="68.9,191.5 68.8,191.3 68.7,191.5 							"/>
							<path fill="#FFFFFF" d="M67.1,191.4l0.4,0.1c0-0.1,0.1-0.1,0.1-0.1C67.3,191.3,67,191.3,67.1,191.4z"/>
							<path fill="#FFFFFF" d="M67.5,191.3c0.1,0,0.2,0,0.3-0.1C67.8,191.3,67.6,191.3,67.5,191.3z"/>
							<polygon fill="#FFFFFF" points="68.4,191.6 68.3,191.6 68,191.5 							"/>
							<path fill="#FFFFFF" d="M63,191.3l-0.4,0.1c-0.1,0.1,0.1,0.2,0.2,0.1C62.9,191.4,63,191.4,63,191.3z"/>
							<path fill="#FFFFFF" d="M64.2,192c-0.1-0.1-0.1-0.1-0.2-0.2v0.3L64.2,192z"/>
							<path fill="#FFFFFF" d="M63,192.1c-0.1,0.1-0.6,0.3-0.1,0.3C63,192.3,63.4,192.2,63,192.1z"/>
							<polygon fill="#FFFFFF" points="56.8,191.7 56.9,191.7 56.9,191.2 							"/>
							<path fill="#FFFFFF" d="M51.3,193c0.5,0.1,0.1-0.3,0.5-0.2c0.1-0.1-0.4-0.1-0.3-0.3C51.3,192.7,51.2,192.6,51.3,193z"/>
							<path fill="#FFFFFF" d="M51.6,192.6c0.1,0,0.1-0.1,0.2-0.1C51.7,192.5,51.7,192.5,51.6,192.6z"/>
							<polygon fill="#FFFFFF" points="73.3,202.5 73.6,202.6 73.4,202.5 							"/>
							<path fill="#FFFFFF" d="M73.9,202.1l0.1,0.3l0.2-0.3C74.1,202.1,73.9,202.2,73.9,202.1z"/>
							<path fill="#FFFFFF" d="M38.2,195.7h-0.1c-0.1,0.1-0.1,0.1-0.1,0.3L38.2,195.7z"/>
							<path fill="#FFFFFF" d="M37.9,199.4L37.9,199.4c0,0-0.1,0-0.2,0.1c-0.1,0.1-0.2,0.1-0.2,0.1L37.9,199.4z"/>
							<path fill="#FFFFFF" d="M38.7,199.2c-0.1,0-0.2,0-0.2,0h-0.1l0,0l0,0c0.1,0,0.1,0,0.1,0S38.6,199.3,38.7,199.2
								C38.7,199.4,38.7,199.4,38.7,199.2z"/>
						</g>
					</g>
				</g>
			</g>
		</g>
	</g>
</g>
</svg>
